182 310 54
0.82533561491 -0.564642473395 3
0.725938538336 -0.687759540243 1
0.599555127329 -0.800332984997 1
0.715382782782 -0.489419693755 3
0.567015750407 -0.634729866726 0
0.609084279773 -0.534084961134 0
0.455253810555 -0.890361337536 1
0.44230443673 -0.720161810414 0
0.297782922474 -0.95463331886 1
-0.0381970916796 -0.999270034064 1
0.131697784594 -0.991289679062 1
-0.206986990209 -0.978343539623 1
-0.36978916311 -0.92911556837 1
-0.52189407878 -0.853010196743 1
0.613185242385 -0.419502594647 3
0.465718956378 -0.579047442669 0
0.498571221414 -0.470060348605 0
0.346193081128 -0.66028170645 0
0.322715980223 -0.803031136993 0
-0.157016310297 -0.831522846242 0
0.170980476111 -0.815750299468 0
0.00737756242505 -0.83781185107 0
-0.293506249485 -0.790251143801 0
-0.658901658939 -0.75222900849 1
-0.437545092248 -0.715145926532 0
-0.552409384518 -0.630653082522 0
0.510987701987 -0.349585495539 3
0.419141400947 -0.415719486451 0
0.368355332742 -0.525527055072 0
0.207969268893 -0.650461473409 0
0.310997698146 -0.431508641848 0
-0.220305172309 -0.656996851757 0
-0.109064448672 -0.690633718609 0
0.0509304587742 -0.683516186745 0
-0.324236590999 -0.604994986104 0
-0.651293604128 -0.527916763971 0
-0.776848563622 -0.629687406502 1
-0.45021940407 -0.513988834869 0
-0.530811074673 -0.430257663685 0
0.40879016159 -0.279668396431 3
0.111012319012 -0.589130158284 0
0.202853995344 -0.44729779315 0
0.256006444213 -0.325586350512 0
-0.872322842044 -0.488930275389 1
-0.150113795807 -0.52922137824 0
0.0140553077079 -0.527798789927 0
-0.278990468913 -0.455996196858 0
-0.596047473765 -0.334080047623 0
-0.731337243417 -0.409908927476 0
-0.41528224504 -0.336613867854 0
0.306592621192 -0.209751297324 3
0.0806204744123 -0.392120746631 0
0.168802920253 -0.26592721166 0
-0.790224816338 -0.280043300159 0
-0.942562632734 -0.334029434547 1
-0.0828546519739 -0.406783709655 0
-0.204619417463 -0.334440369971 0
-0.304579618664 -0.24688202916 0
-0.520504253212 -0.214670488012 0
-0.644041458886 -0.228238207374 0
-0.400841066093 -0.201528239713 0
0.204395080795 -0.139834198216 3
0.0231686116798 -0.302114896375 0
0.0635545004399 -0.183455634157 0
-0.673404672439 -0.115793931873 0
-0.826252837565 -0.142076626747 0
-0.985536057777 -0.169465848218 1
-0.133398425108 -0.218033160818 0
-0.22296955818 -0.124972730572 0
-0.526840938218 -0.0905918621241 0
-0.386399887147 -0.0664426074767 0
0.102197540397 -0.0699170991079 3
-0.0227358359133 -0.122281986293 0
-1 7.10013933091e-16 1
-0.683287705811 -1.02370711907e-09 0
-0.838379105789 -1.02370711907e-09 0
-0.526840938218 0.0905918600766 0
-0.109026172266 -0.0611083343333 0
-0.255604402178 -1.02370711907e-09 0
-0.386399887147 0.0664426054293 0
0 0 4
-0.985536057777 0.169465848218 1
-0.673404672439 0.115793929825 0
-0.826252837565 0.1420766247 0
-0.644041458886 0.228238205327 0
-0.53000723945 0.240618363128 0
-0.437148925822 0.174624578494 0
-0.11780500454 0.0417482472702 0
-1.25833521381e-09 0.119018338714 0
-0.256123249653 0.131967092056 0
-0.298997450772 0.218737018766 0
0.102197540397 0.0699170991079 4
0.062449427143 0.198297604638 0
-0.942562632734 0.334029434547 1
-0.790224816338 0.280043298112 0
-0.656380041898 0.365298183482 0
-0.532923285264 0.378787259624 0
-0.430916118414 0.272501447879 0
-0.141193227202 0.189772782739 0
-0.0396694036202 0.240835634705 0
-0.211618973236 0.258046543069 0
-0.340014976998 0.301749365405 0
-1.83690953073e-17 0.4 2
0.204395080795 0.139834198216 4
0.152400652393 0.252413173447 0
0.0573922694413 0.326947819421 0
0.14612062957 0.32910948325 0
-0.872322842044 0.488930275389 1
-0.715595989319 0.477269598476 0
-0.575539481504 0.466849219244 0
-0.450479200436 0.457544576241 0
-0.394591625494 0.378722524487 0
-0.0561255205172 0.340741837408 0
-0.13198721837 0.293871000155 0
-0.225481432179 0.347582194456 0
-0.320248218228 0.402024465027 0
-0.0707106781187 0.429289321881 2
0.306592621192 0.209751297324 4
0.0707106781187 0.429289321881 2
0.214850080794 0.295137127135 0
0.140444737206 0.398427717517 0
-0.776848563622 0.629687406502 1
-0.623969754176 0.600395097852 0
-0.489828983041 0.57469308645 0
-0.3583656439 0.49629683744 0
-0.145857303931 0.421078684813 0
-0.239211935289 0.441826025917 0
-0.1 0.5 2
0.308196014737 0.324187479444 0
0.40879016159 0.279668396431 4
0.1 0.5 2
0.184772493775 0.468974709362 0
0.280419456973 0.433969547523 0
-0.658901658939 0.75222900849 1
-0.269209963894 0.532421433139 0
-0.509312009127 0.684720084623 0
-0.381429740447 0.627007573799 0
-0.159962303636 0.55017208079 0
-0.0707106781187 0.570710678119 2
0.388700017118 0.39434070648 0
0.510987701987 0.349585495539 4
0.0707106781187 0.570710678119 2
0.150490957666 0.555480667077 0
0.245632692788 0.525541982768 0
0.372712469349 0.508704995675 0
-0.52189407878 0.853010196743 1
6.12303176911e-18 0.6 2
-0.230147568607 0.608897991947 0
-0.408974416287 0.758527255727 0
-0.297899889437 0.712859978528 0
-0.124917114852 0.635669719852 0
0.498571221414 0.470060346558 0
0.485200539037 0.599793653601 0
0.613185242385 0.419502594647 4
0.081764276593 0.646938457373 0
0.209590112401 0.620420221846 0
0.336386109187 0.610930861149 0
-0.36978916311 0.92911556837 1
-0.00954915053972 0.699816223128 0
-0.190984098632 0.714842012488 0
-0.27161761633 0.811470317611 0
-0.0832391317601 0.752149595824 0
0.609084279773 0.534084959087 0
0.604562784957 0.6604171736 0
0.470786791343 0.739647635315 0
0.715382782782 0.489419693755 4
0.0529618251748 0.757355842121 0
0.278884756363 0.696562824904 0
0.162027026037 0.725103891163 0
0.36017036724 0.785881388981 0
-0.206986990209 0.978343539623 1
-0.0219995059783 0.82995842537 0
-0.139044179538 0.854153492953 0
0.725938538336 0.687759540243 1
0.455253810555 0.890361337536 1
0.599555127329 0.800332984997 1
0.82533561491 0.564642473395 4
0.297782922474 0.95463331886 1
0.111678963163 0.853235977114 0
0.223247189101 0.828611949674 0
-0.0381970916796 0.999270034064 1
0.131697784594 0.991289679062 1
170 175 178 0
180 170 178 0
182 180 178 0
167 155 169 0
168 156 157 0
131 143 142 0
131 121 132 0
179 180 182 0
181 179 182 0
167 169 179 0
162 159 172 0
173 162 172 0
160 151 162 0
169 155 156 0
172 167 179 0
156 155 143 0
180 169 168 0
180 179 169 0
159 155 167 0
142 143 155 0
172 179 181 0
173 172 181 0
158 161 171 0
160 162 173 0
173 181 171 0
159 167 172 0
147 159 151 0
147 155 159 0
147 142 155 0
149 150 161 0
162 151 159 0
161 150 160 0
171 161 173 0
158 149 161 0
148 137 135 0
173 161 160 0
149 137 150 0
139 147 151 0
149 158 146 0
134 136 146 0
150 137 148 0
136 124 137 0
146 136 149 0
134 123 136 0
125 135 137 0
148 138 151 0
150 148 160 0
135 138 148 0
127 135 125 0
148 151 160 0
127 138 135 0
128 139 138 0
124 136 123 0
123 134 122 0
108 109 122 0
136 137 149 0
110 124 123 0
111 125 124 0
96 85 86 0
110 96 97 0
109 95 96 0
94 95 108 0
94 82 84 0
110 109 96 0
138 139 151 0
128 138 126 0
84 75 83 0
84 76 75 0
94 84 95 0
82 76 84 0
125 137 124 0
112 125 111 0
102 115 116 0
126 138 127 0
76 82 74 0
67 76 74 0
100 99 89 0
77 70 80 0
77 75 70 0
87 86 77 0
90 91 80 0
98 86 87 0
91 98 87 0
102 116 112 0
85 83 77 0
65 60 70 0
76 66 75 0
76 67 66 0
69 68 78 0
71 69 79 0
58 68 69 0
110 111 124 0
110 97 111 0
122 109 123 0
96 95 85 0
123 109 110 0
108 95 109 0
87 77 80 0
96 86 97 0
85 77 86 0
99 90 88 0
83 75 77 0
95 83 85 0
95 84 83 0
71 79 80 0
59 48 50 0
70 59 61 0
60 48 59 0
66 54 65 0
54 44 49 0
61 69 71 0
116 127 125 0
112 116 125 0
97 112 111 0
98 102 112 0
86 98 97 0
90 79 88 0
101 91 90 0
114 101 99 0
114 115 101 0
80 79 90 0
99 88 89 0
113 114 100 0
91 87 80 0
99 101 90 0
102 98 91 0
78 88 79 0
56 63 68 0
73 81 78 0
100 93 106 0
81 89 88 0
81 92 89 0
66 65 75 0
55 66 67 0
54 49 60 0
55 54 66 0
55 44 54 0
2 1 4 0
6 4 15 0
27 17 15 0
5 2 6 0
6 2 4 0
29 42 30 0
6 17 16 0
31 40 43 0
17 28 29 0
17 27 28 0
5 3 2 0
17 29 16 0
15 17 6 0
27 40 28 0
9 19 21 0
43 42 31 0
5 8 3 0
31 42 29 0
28 31 29 0
28 40 31 0
51 43 40 0
51 53 43 0
18 29 30 0
21 19 30 0
8 16 18 0
3 8 7 0
16 29 18 0
5 16 8 0
5 6 16 0
21 22 11 0
19 18 30 0
7 19 9 0
8 18 19 0
30 34 21 0
7 8 19 0
45 56 47 0
62 64 53 0
21 11 9 0
72 64 62 0
22 10 11 0
34 22 21 0
41 34 30 0
42 41 30 0
46 34 41 0
46 33 34 0
23 35 25 0
12 23 13 0
20 33 32 0
34 33 22 0
45 35 32 0
78 81 88 0
53 63 52 0
81 73 72 0
56 45 46 0
68 58 57 0
64 73 63 0
78 79 69 0
57 47 56 0
68 57 56 0
58 47 57 0
61 58 69 0
70 61 71 0
50 58 61 0
39 50 48 0
47 58 50 0
20 22 33 0
32 23 20 0
45 32 33 0
35 23 32 0
12 10 20 0
52 41 42 0
73 64 72 0
68 73 78 0
68 63 73 0
46 52 56 0
53 64 63 0
43 53 52 0
51 62 53 0
45 33 46 0
35 45 47 0
20 10 22 0
52 42 43 0
56 52 63 0
46 41 52 0
23 25 13 0
12 20 23 0
47 50 38 0
25 38 26 0
13 25 14 0
35 38 25 0
36 48 49 0
24 36 37 0
39 48 36 0
24 26 36 0
38 50 39 0
14 25 26 0
35 47 38 0
97 98 112 0
126 115 114 0
117 128 126 0
26 39 36 0
14 26 24 0
38 39 26 0
36 49 37 0
59 70 60 0
70 75 65 0
50 61 59 0
71 80 70 0
54 60 65 0
37 49 44 0
48 60 49 0
177 174 166 0
163 166 174 0
164 153 163 0
176 164 174 0
176 165 164 0
152 154 163 0
165 153 164 0
175 165 176 0
170 168 157 0
170 165 175 0
145 140 152 0
153 145 152 0
157 144 145 0
144 133 145 0
143 144 156 0
132 133 144 0
131 132 143 0
121 133 132 0
121 107 120 0
154 166 163 0
153 152 163 0
174 164 163 0
144 143 132 0
157 156 144 0
140 145 133 0
153 165 157 0
168 169 156 0
165 170 157 0
170 180 168 0
113 106 103 0
127 116 115 0
89 93 100 0
101 102 91 0
101 115 102 0
100 114 99 0
113 126 114 0
126 127 115 0
92 93 89 0
92 104 93 0
106 121 119 0
104 105 93 0
104 118 120 0
113 103 117 0
126 113 117 0
100 106 113 0
105 106 93 0
107 121 106 0
105 107 106 0
105 120 107 0
120 133 121 0
104 120 105 0
118 130 129 0
129 120 118 0
140 129 130 0
140 133 129 0
141 152 140 0
119 103 106 0
131 119 121 0
157 145 153 0
120 129 133 0
130 141 140 0
152 141 154 0
142 131 2
147 142 2
139 147 2
128 139 2
117 128 2
103 117 2
119 103 2
131 119 2
81 92 4
92 104 4
104 118 4
118 130 4
130 141 4
141 154 4
154 166 4
166 177 4
1 4 3
4 15 3
15 27 3
27 40 3
40 51 3
51 62 3
62 72 3
72 81 3
177 174 1
174 176 1
176 175 1
175 178 1
178 182 1
182 181 1
181 171 1
171 158 1
158 146 1
146 134 1
134 122 1
122 108 1
108 94 1
94 82 1
82 74 1
74 67 1
67 55 1
55 44 1
44 37 1
37 24 1
24 14 1
14 13 1
13 12 1
12 10 1
10 11 1
11 9 1
9 7 1
7 3 1
3 2 1
2 1 1
