483 866 100
0 2 2
0.1 2 2
0 1.9 2
0.149999999488 1.92499999872 0
0.2 2 2
0.3 2 2
0 1.8 2
0.1 1.84999999846 0
0.17999999959 1.8399999998 0
0.239999999795 1.91999999939 0
0.4 2 2
0.333333332309 1.91666666513 0
0 1.7 2
0.119999999385 1.75999999816 0
0.5 2 2
0.199999998976 1.74999999949 0
0.266666665642 1.83333333333 0
0.352406128358 1.81087616469 0
0.428571427547 1.92857142652 0
0 1.6 2
0.133333332309 1.66666666564 0
0.6 2 2
0.536541617509 1.91450162941 0
0.487343649368 1.85146035063 0
0.226324800147 1.63761814641 0
0.302406210827 1.74837622014 0
0.438145701716 1.78841907185 0
0.0714285714286 1.5714285704 0
0 1.5 2
0.7 2 2
0.181880355703 1.58206259188 0
0.628408102811 1.90381433219 0
0.573083235019 1.82900325985 0
0.523885277122 1.76596197902 0
0.35682039974 1.64674544478 0
0.285714647347 1.55830133935 0
0.424690126744 1.66676669956 0
0.0929914688626 1.47095148076 0
0 1.4 2
0.715706886179 1.90381433219 0
0.8 2 2
0.230427381145 1.49745851811 0
0.345104494547 1.4789845323 0
0.656816204597 1.80762866745 0
0.731413772359 1.80762866745 0
0.609624852528 1.74350488823 0
0.55609857706 1.66557061576 0
0.411234584554 1.54511462026 0
0.502572301591 1.58763634329 0
0.185982936701 1.44190296358 0
0.0961856657604 1.37159189514 0
0 1.3 2
0.815574578862 1.89625892248 0
0.9 2 2
0.278974406588 1.41285444434 0
0.395519752703 1.43176779834 0
0.831149160798 1.79251784598 0
0.685224308432 1.71144300067 0
0.778986922353 1.72767967342 0
0.634837419479 1.64050903091 0
0.581508107746 1.53531871348 0
0.488513918955 1.48354325591 0
0.192371330496 1.34318379335 0
0.0961856657604 1.28429311177 0
0 1.2 2
0.901058903151 1.89625892248 0
1.1 2 2
1 2 2
1.3 2 2
1.2 2 2
0.999999998976 1.89839026593 0
0.341993479284 1.35383352791 0
0.425968367724 1.31794303955 0
0.474455548613 1.37945018493 0
0.902117808351 1.79251784598 0
0.846723740685 1.68877676948 0
0.787802378729 1.60114021106 0
0.713576261898 1.61544744607 0
0.660181294903 1.51934247559 0
0.606786329957 1.42323750716 0
0.288556997281 1.25287933941 0
0.192371330496 1.26858622559 0
0.103741075475 1.18442541909 0
0 1.1 2
1.4 2 2
1.5 2 2
0.999999998976 1.79678053287 0
1.18442541909 1.89625892248 0
1.08548432326 1.89839026593 0
1.37159189514 1.90381433219 0
1.28429311177 1.90381433219 0
1.07096864653 1.79678053287 0
0.384552551885 1.23720349831 0
0.477738137522 1.2589016955 0
0.553391365012 1.32713253873 0
0.643482384033 1.29899005759 0
0.957811223769 1.59532142439 0
0.943547028157 1.69517079982 0
0.733573403054 1.27084757851 0
0.862028495559 1.58683297605 0
0.741098302455 1.52226186043 0
0.683116328701 1.44168781987 0
0.706051362498 1.36403316414 0
0.299890112877 1.17485133752 0
0.207482151974 1.16885083715 0
0.101609732026 1.08548432326 0
0 1 2
1.46345838044 1.91450162941 0
1.5714285704 1.92857142652 0
1.6 2 2
1.8 2 2
1.7 2 2
1.05645296979 1.69517079982 0
1.26858622559 1.80762866745 0
1.16885083715 1.79251784598 0
1.42691676293 1.82900325985 0
1.34318379335 1.80762866745 0
1.15327625727 1.68877676948 0
0.45085652466 1.16922837949 0
0.413167021902 1.09578272719 0
0.538798698447 1.14372061793 0
0.570923725209 1.20676953709 0
0.757294901688 1.17633557569 1
0.664109312896 1.19155255546 0
0.951700666222 1.51885273905 0
1.04218877418 1.59532142439 0
0.823664424312 1.24270509831 1
0.945590110724 1.44238405371 0
0.796142383568 1.33589068506 0
0.877117297405 1.48632763604 0
0.768620343011 1.42907627274 0
0.311223228472 1.09682328645 0
0.203219465076 1.07096864653 0
0.101609732026 0.999999998976 0
0 0.9 2
0.404678573557 0.999999998976 0
2 2 2
1.54679171429 1.84783496274 0
1.66666666564 1.86666666564 0
1.9 2 2
1.86666666564 1.93333333231 0
1.75999999816 1.91999999939 0
1.13797150239 1.58683297605 0
1.57018757246 1.7717524436 0
1.25287933941 1.71144300067 0
1.48028135894 1.75762866592 0
1.39037514542 1.74350488823 0
1.23720349831 1.61544744607 0
0.520958872718 1.07186030743 0
0.503119049038 0.999999998976 0
0.626740870184 1.11821285842 0
0.714683045111 1.09270509831 1
1.02812584911 1.49688094891 0
1.01406292404 1.39844047343 0
0.907294901688 1.28531695489 1
0.89220609925 1.38582229399 0
0.304829198127 0.999999998976 0
0.103741075475 0.901058903151 0
0.203219465076 0.999999998976 0
0.103741075475 0.815574578862 0
0 0.8 2
0.311223228472 0.903176711503 0
0.413167021902 0.904217270766 0
2 1.9 2
1.66009378597 1.78587622129 0
1.74999999949 1.79999999898 0
1.93333333231 1.86666666564 0
1.81999999836 1.8399999998 0
1.22198651668 1.52226186043 0
1.14372061793 1.4612012995 0
1.62642678463 1.64552390328 0
1.53965096496 1.66951439601 0
1.35383352791 1.65800651867 0
1.45287514529 1.69350488874 0
1.31794303955 1.57403163023 0
0.601559524519 0.999999998976 0
0.513672361908 0.905243147542 0
0.7 1 1
1.09373097363 1.38582229399 0
1 1.3 1
1.17772902705 1.39336901428 0
0.207482151974 0.831149160798 0
0.207482151974 0.902117808351 0
0.272320324529 0.778986922353 0
0.181546883361 0.752657947552 0
0.0907734401438 0.726328972752 0
0 0.7 2
0.362914350874 0.805263856896 0
0.477738137522 0.778013481272 0
2 1.8 2
1.73160130291 1.71076670476 0
1.83333333333 1.73333333231 0
1.92499999872 1.77499999821 0
1.71320260634 1.62153341055 0
1.28254117312 1.4911999965 0
1.24713930669 1.40836836482 0
1.60956131379 1.56372671692 0
1.52278549413 1.58771720965 0
1.4298767756 1.58196327098 0
1.36902274477 1.49524914603 0
0.614177703964 0.906269024318 0
0.570923725209 0.793230460857 0
0.714683045111 0.907294901688 1
1.09270509831 1.28531695489 1
1.21173744026 1.3255367311 0
0.192371330496 0.656816204597 0
0.307156896784 0.712576711562 0
0.0961856657604 0.628408102811 0
0 0.6 2
0.508800001451 0.71745882483 0
0.425968367724 0.682056958398 0
2 1.7 2
1.81087622206 1.64759378559 0
1.91666666513 1.66666666564 0
1.67734498864 1.52825403607 0
1.78841911078 1.56185423887 0
1.59127598134 1.48630488495 0
1.29899005759 1.35651761392 0
1.36244806821 1.4137672295 0
1.50592002329 1.50592002329 0
1.43418404472 1.45984362639 0
0.572117446616 0.678762424345 0
0.664109312896 0.808447442491 0
0.635966831759 0.718356421421 0
0.757294901688 0.823664424312 1
1.17633557569 1.24270509831 1
1.27084757851 1.2664265949 0
0.170996738105 0.573083235019 0
0.256495109719 0.609624852528 0
0.341993479284 0.646166470038 0
0.0854983685403 0.536541617509 0
0 0.5 2
0.508268063523 0.639168427269 0
0.417676352447 0.600449937489 0
0.590567761371 0.59627989614 0
2 1.6 2
1.67640521319 1.44306682213 0
1.92857142652 1.5714285704 0
1.74512866553 1.49278135727 0
1.85146036907 1.51265630965 0
1.57299064889 1.40888305298 0
1.37341399051 1.32397897376 0
1.44235496329 1.3363344625 0
1.50767280609 1.37260875671 0
0.701009940357 0.643482384033 0
0.729152419445 0.733573403054 0
0.823664424312 0.757294901688 1
1.24270509831 1.17633557569 1
1.33589068506 1.19155255546 0
0.14853962683 0.487343686248 0
0.254871330368 0.507218638628 0
0.346419849476 0.550210106978 0
0 0.4 2
0.0714285693797 0.428571427547 0
0.436344589234 0.490795363477 0
0.493359227659 0.55473340699 0
0.569042102871 0.50901687649 0
0.67286745922 0.553391365012 0
1.65800651867 1.35383352791 0
2 1.5 2
1.74350488823 1.39037514542 0
1.91450162941 1.46345838044 0
1.82900325985 1.42691676293 0
1.61544744607 1.28642373605 0
1.42907627274 1.23137965494 0
1.52226186043 1.2589016955 0
0.768620343011 0.570923725209 0
0.788262557693 0.674463266856 0
0.907294901688 0.714683045111 1
1.28531695489 1.09270509831 1
1.37325912777 1.11821285842 0
0.211580885119 0.438145757036 0
0.323962736152 0.464470560257 0
0 0.3 2
0.0833333328211 0.333333332309 0
0.189123773844 0.352406208266 0
0.434720811932 0.388389147528 0
0.526269328991 0.431380619976 0
0.644724978083 0.46330034599 0
0.741098302455 0.477738137522 0
1.7355922798 1.30569411051 0
2 1.4 2
1.80762866745 1.34318379335 0
1.90381433219 1.37159189514 0
1.72767967342 1.2210130756 0
1.63708564708 1.19473614105 0
1.4612012995 1.14372061793 0
1.54914347329 1.16922837949 0
1.42982088544 1.07186030743 0
0.836931743228 0.542298043559 0
0.906269024318 0.614177703964 0
1 0.7 1
1.39844047343 0.999999998976 0
1.3 1 1
1.28531695489 0.907294901688 1
0.830771618458 0.45085652466 0
0 0.2 2
0.313197377523 0.365202591629 0
0.0799999985658 0.239999999795 0
0.166666664618 0.266666665642 0
0.251623775765 0.302406210827 0
0.43309703463 0.285982937725 0
0.52464555169 0.328974406076 0
0.616194070798 0.371965876475 0
0.713576261898 0.384552551885 0
0.805263856896 0.362914350874 0
1.81845311459 1.2473420504 0
2 1.3 2
1.90922655781 1.2736710252 0
1.79251784598 1.16885083715 0
1.79251784598 1.0978821896 0
1.68877676948 1.09682328645 0
1.58683297605 1.09578272719 0
1.50832693075 1.08382151628 0
1.49688094891 0.999999998976 0
1.24270509831 0.823664424312 1
1.17633557569 0.757294901688 1
1.09270509831 0.714683045111 1
0.905243147542 0.513672361908 0
1.01406292404 0.601559524519 0
1.47904112318 0.928139688473 0
1.37325912777 0.881787139533 0
1.4612012995 0.85627938002 0
1.33589068506 0.808447442491 0
0.904217270766 0.413167021902 0
0 0.1 2
0.0749999992317 0.149999999488 0
0.341548515522 0.242991467326 0
0.159999998156 0.17999999959 0
0.249999998463 0.199999998976 0
0.417937404027 0.181880355703 0
0.502541477794 0.230427381145 0
0.58714555361 0.278974406588 0
0.685224308432 0.288556997281 0
0.778986922353 0.272320324529 0
0.903176711503 0.311223228472 0
1.89625892248 1.18442541909 0
2 1.2 2
1.89625892248 1.0989410948 0
1.79678053287 0.999999998976 0
1.69517079982 0.999999998976 0
1.59532142439 0.999999998976 0
1.58683297605 0.904217270766 0
1.2664265949 0.729152419445 0
1.20385761438 0.664109312896 0
1.11821285842 0.626740870184 0
1.07889176996 0.570179110458 0
0.966171559939 0.458143031372 0
1.02812584911 0.503119049038 0
1.54914347329 0.830771618458 0
1.42907627274 0.793230460857 0
1.35651761392 0.701009940357 0
0 0 2
0.972682742842 0.35795089999 0
0.1 0 2
0.149999999488 0.1 0
0.428571427547 0.0714285714286 0
0.333333332309 0.133333332309 0
0.239999999795 0.119999999385 0
0.558097034374 0.185982936701 0
0.529048517187 0.0929914688626 0
0.656816204597 0.192371330496 0
0.752657947552 0.181546883361 0
0.902117808351 0.207482151974 0
0.831149160798 0.207482151974 0
0.98634136886 0.280585181509 0
2 1.1 2
1.89839026593 0.999999998976 0
1.79678053287 0.929031351422 0
1.68877676948 0.903176711503 0
1.63708564708 0.805263856896 0
1.2939486334 0.635966831759 0
1.23137965494 0.570923725209 0
1.14372061793 0.538798698447 0
1.09867711328 0.476987785825 0
1.04218877418 0.404678573557 0
1.52226186043 0.741098302455 0
1.44660863294 0.67286745922 0
1.38403965243 0.607824350621 0
1.05645296979 0.304829198127 0
0.4 0 2
0.2 0 2
0.5 0 2
0.3 0 2
0.628408102811 0.0961856657604 0
0.6 0 2
0.715706886179 0.0961856657604 0
0.815574578862 0.103741075475 0
0.999999998976 0.203219465076 0
0.901058903151 0.103741075475 0
1.07096864653 0.203219465076 0
1.15327625727 0.311223228472 0
2 1 2
1.89839026593 0.914515674687 0
1.79251784598 0.831149160798 0
1.72767967342 0.778986922353 0
1.61544744607 0.713576261898 0
1.32147067396 0.542781244072 0
1.2589016955 0.477738137522 0
1.16922837949 0.45085652466 0
1.53669965196 0.644724978083 0
1.41156169298 0.514638764984 0
1.50011852533 0.547667510479 0
0.7 0 2
0.8 0 2
0.9 0 2
0.999999998976 0.101609732026 0
1.08548432326 0.101609732026 0
1.21984999564 0.347887889154 0
1.16885083715 0.207482151974 0
1.2210130756 0.272320324529 0
2 0.9 2
1.89625892248 0.815574578862 0
1.81845311459 0.752657947552 0
1.71144300067 0.685224308432 0
1.62803412148 0.616194070798 0
1.34899271452 0.449595658434 0
1.28642373605 0.384552551885 0
1.56861937593 0.526269328991 0
1.46353739869 0.450610042876 0
1 0 2
1.1 0 2
1.18442541909 0.103741075475 0
1.31477568952 0.288556997281 0
1.26858622559 0.192371330496 0
2 0.8 2
1.90922655781 0.726328972752 0
1.80762866745 0.656816204597 0
1.72102559136 0.58714555361 0
1.64959701891 0.515716981157 0
1.42695627206 0.353552575273 0
1.56734865649 0.432924967197 0
1.50835748614 0.374115012655 0
1.2 0 2
1.39037514542 0.256495109719 0
1.28429311177 0.0961856657604 0
1.34318379335 0.192371330496 0
2 0.7 2
1.90381433219 0.628408102811 0
1.81401706125 0.558097034374 0
1.7425884888 0.48666846397 0
1.67115991634 0.415239891517 0
1.49834533334 0.242425310558 0
1.58475262382 0.328832598989 0
1.3 0 2
1.42691676293 0.170996738105 0
1.37159189514 0.0961856657604 0
2 0.6 2
1.90700852909 0.529048517187 0
1.83557996278 0.457619940636 0
1.74629424312 0.368334231217 0
1.69272281378 0.314762801877 0
1.53488695085 0.156926938944 0
1.6063155233 0.228355511397 0
1.4 0 2
1.46345838044 0.0854983685403 0
2 0.5 2
1.92857142652 0.428571427547 0
1.85714285612 0.357142855094 0
1.78571428367 0.28571428469 0
1.71428571326 0.214285712237 0
1.5714285704 0.0714285693797 0
1.64285714081 0.142857141833 0
1.5 0 2
2 0.4 2
1.93333333231 0.333333332309 0
1.86666666564 0.266666665642 0
1.79999999898 0.199999998976 0
1.73333333231 0.133333332309 0
1.6 0 2
1.66666666564 0.0666666656422 0
2 0.3 2
1.92499999872 0.224999999744 0
1.84999999846 0.149999999488 0
1.77499999821 0.0749999992317 0
1.7 0 2
2 0.2 2
1.92499999872 0.149999999488 0
1.86666666564 0.0666666656422 0
1.8 0 2
2 0.1 2
1.9 0 2
2 0 2
266 287 288 0
309 338 308 0
313 312 286 0
287 314 288 0
342 312 313 0
307 285 310 0
337 307 310 0
282 284 308 0
282 260 262 0
262 260 238 0
216 240 238 0
263 284 262 0
264 286 285 0
322 293 294 0
314 313 288 0
315 314 289 0
315 342 314 0
368 394 393 0
367 368 393 0
340 369 368 0
370 369 341 0
342 370 341 0
371 396 370 0
413 414 427 0
370 395 369 0
396 414 395 0
286 266 288 0
266 265 287 0
281 307 283 0
214 238 236 0
215 216 194 0
171 197 194 0
261 263 239 0
241 244 264 0
196 219 195 0
242 265 243 0
219 242 243 0
218 227 242 0
243 265 266 0
244 243 266 0
264 244 266 0
241 220 244 0
219 218 242 0
205 218 196 0
242 249 265 0
205 227 218 0
205 226 227 0
249 271 265 0
322 294 295 0
343 321 350 0
316 324 295 0
316 344 324 0
289 314 287 0
321 315 293 0
322 321 293 0
323 350 321 0
343 371 370 0
315 343 342 0
350 371 343 0
372 345 373 0
399 398 373 0
352 344 372 0
351 324 352 0
316 317 344 0
342 341 312 0
321 343 315 0
370 396 395 0
265 271 287 0
249 270 271 0
270 249 248 0
270 294 271 0
284 309 308 0
262 284 282 0
214 213 238 0
261 283 263 0
240 216 239 0
262 240 263 0
262 238 240 0
281 285 307 0
259 281 261 0
259 264 281 0
283 307 309 0
263 283 284 0
261 281 283 0
67 89 88 0
248 249 227 0
259 241 264 0
118 92 113 0
147 117 145 0
88 89 115 0
114 88 115 0
91 70 88 0
68 89 67 0
125 100 130 0
98 97 126 0
98 100 97 0
242 227 249 0
117 116 90 0
145 117 114 0
147 116 117 0
226 248 227 0
147 145 173 0
226 205 204 0
175 148 169 0
179 180 204 0
205 181 204 0
153 126 125 0
169 196 195 0
180 179 154 0
181 196 170 0
126 97 125 0
153 154 179 0
53 66 54 0
71 68 54 0
57 75 66 0
89 68 71 0
196 169 170 0
53 54 41 0
75 57 76 0
98 75 76 0
100 98 76 0
113 87 98 0
87 71 66 0
71 87 92 0
66 53 57 0
87 66 75 0
71 54 66 0
30 40 41 0
30 22 32 0
75 98 87 0
40 30 32 0
44 40 32 0
53 41 40 0
143 113 126 0
173 145 148 0
115 92 118 0
145 115 118 0
114 91 88 0
71 92 89 0
170 143 153 0
173 148 175 0
118 113 143 0
148 118 143 0
145 114 115 0
87 113 92 0
125 130 128 0
153 125 128 0
97 100 125 0
22 15 23 0
12 17 18 0
23 24 33 0
45 57 53 0
44 45 40 0
44 58 45 0
170 153 179 0
181 170 179 0
204 181 179 0
205 196 181 0
169 143 170 0
175 169 195 0
143 126 153 0
148 143 169 0
148 145 118 0
98 126 113 0
128 156 154 0
153 128 154 0
130 156 128 0
19 23 15 0
12 19 11 0
18 17 26 0
27 18 26 0
27 19 18 0
156 180 154 0
23 32 22 0
23 33 32 0
11 19 15 0
24 27 34 0
19 24 23 0
19 27 24 0
46 44 33 0
37 34 27 0
61 47 49 0
46 34 47 0
119 94 93 0
122 124 96 0
45 59 57 0
6 12 11 0
73 56 72 0
47 37 49 0
56 55 72 0
35 36 48 0
42 55 43 0
16 21 25 0
50 55 42 0
81 93 72 0
101 102 131 0
94 95 74 0
94 122 95 0
10 17 12 0
6 10 12 0
5 4 10 0
28 29 38 0
155 180 156 0
137 140 164 0
168 141 142 0
192 168 166 0
167 141 168 0
141 140 111 0
142 141 111 0
167 140 141 0
112 139 142 0
167 190 164 0
212 190 193 0
112 110 139 0
108 86 85 0
69 90 85 0
108 116 138 0
69 91 90 0
147 146 116 0
117 91 114 0
108 90 116 0
108 85 90 0
243 244 221 0
88 70 67 0
117 90 91 0
69 70 91 0
244 220 221 0
261 239 237 0
172 144 146 0
92 115 89 0
195 219 200 0
218 219 196 0
109 110 86 0
116 146 138 0
139 110 109 0
138 139 109 0
108 138 109 0
165 171 191 0
146 144 138 0
146 174 172 0
173 174 147 0
144 165 138 0
142 111 112 0
166 142 139 0
166 168 142 0
200 175 195 0
221 200 219 0
243 221 219 0
220 199 221 0
199 173 175 0
221 199 200 0
198 197 171 0
174 198 172 0
220 197 198 0
217 197 220 0
237 217 241 0
237 215 217 0
174 173 199 0
167 164 140 0
192 193 168 0
193 190 167 0
168 193 167 0
192 214 193 0
214 236 212 0
193 214 212 0
86 108 109 0
240 239 263 0
191 194 213 0
192 191 213 0
165 144 171 0
166 165 191 0
166 139 165 0
174 146 147 0
175 200 199 0
171 194 191 0
199 220 198 0
215 237 239 0
216 215 239 0
197 217 215 0
172 198 171 0
144 172 171 0
174 199 198 0
220 241 217 0
213 194 216 0
238 213 216 0
192 166 191 0
165 139 138 0
197 215 194 0
259 237 241 0
259 261 237 0
264 285 281 0
238 260 236 0
192 213 214 0
284 283 309 0
326 353 355 0
355 382 356 0
356 327 355 0
358 359 384 0
327 297 326 0
355 327 326 0
356 329 327 0
381 358 384 0
299 297 327 0
332 331 361 0
333 332 360 0
302 331 332 0
359 358 330 0
356 359 329 0
356 382 359 0
332 361 360 0
381 357 358 0
381 383 357 0
250 228 231 0
354 380 376 0
348 354 376 0
366 389 391 0
336 366 354 0
336 364 366 0
361 357 383 0
303 332 333 0
386 361 383 0
386 404 385 0
303 302 332 0
298 302 277 0
252 273 255 0
301 328 298 0
358 328 330 0
331 302 328 0
357 331 358 0
357 361 331 0
304 303 333 0
298 272 276 0
228 251 229 0
331 328 358 0
278 277 303 0
298 276 301 0
250 254 272 0
251 250 272 0
231 254 250 0
299 329 300 0
329 359 330 0
233 211 234 0
188 207 211 0
229 251 252 0
207 184 185 0
211 207 230 0
188 184 207 0
330 300 329 0
206 228 229 0
207 206 229 0
185 186 206 0
299 275 274 0
258 235 257 0
385 387 362 0
360 385 362 0
361 386 385 0
325 306 336 0
366 364 389 0
280 305 306 0
388 405 406 0
211 189 188 0
252 234 230 0
222 235 245 0
348 325 354 0
349 348 376 0
349 319 348 0
210 202 189 0
234 256 233 0
222 202 210 0
222 224 202 0
233 222 210 0
233 235 222 0
211 233 210 0
256 257 235 0
245 246 224 0
155 156 129 0
99 96 124 0
127 99 123 0
129 103 99 0
155 129 127 0
103 80 96 0
99 103 96 0
102 101 79 0
130 101 131 0
47 60 46 0
59 76 57 0
58 59 45 0
58 78 59 0
119 121 122 0
121 151 122 0
1 3 2 0
8 3 7 0
9 8 14 0
17 9 16 0
17 10 9 0
4 3 8 0
13 14 7 0
13 21 14 0
4 5 2 0
3 4 2 0
8 9 4 0
21 13 20 0
6 5 10 0
51 38 39 0
52 51 39 0
82 81 63 0
96 95 122 0
123 99 124 0
129 131 103 0
100 77 101 0
62 48 56 0
80 62 74 0
61 49 62 0
77 59 78 0
26 17 16 0
21 31 25 0
37 47 34 0
26 37 27 0
35 48 37 0
25 31 36 0
16 25 26 0
31 42 36 0
46 33 34 0
44 46 58 0
44 32 33 0
38 42 31 0
72 55 63 0
81 72 63 0
80 95 96 0
78 79 101 0
74 62 56 0
35 26 25 0
49 37 48 0
37 26 35 0
33 24 34 0
19 12 18 0
74 95 80 0
61 62 80 0
56 73 74 0
36 42 43 0
48 36 43 0
35 25 36 0
28 31 21 0
28 38 31 0
63 55 50 0
58 46 60 0
10 4 9 0
63 51 64 0
93 73 72 0
50 38 51 0
14 21 16 0
9 14 16 0
8 7 14 0
50 51 63 0
42 38 50 0
20 28 21 0
20 29 28 0
29 39 38 0
119 122 94 0
53 40 45 0
77 78 101 0
76 77 100 0
76 59 77 0
151 124 122 0
131 156 130 0
62 49 48 0
79 61 80 0
79 78 60 0
102 79 80 0
103 102 80 0
103 131 102 0
60 47 61 0
79 60 61 0
78 58 60 0
129 156 131 0
64 51 52 0
56 43 55 0
94 74 73 0
48 43 56 0
94 73 93 0
64 82 63 0
65 64 52 0
65 84 83 0
106 84 107 0
105 106 133 0
83 84 106 0
133 106 134 0
130 100 101 0
162 184 188 0
136 157 162 0
177 150 163 0
120 132 136 0
150 120 136 0
119 93 120 0
160 135 161 0
186 160 161 0
134 106 107 0
183 159 158 0
183 162 157 0
159 134 158 0
157 159 183 0
163 136 162 0
120 93 104 0
83 105 82 0
65 83 64 0
106 105 83 0
157 133 159 0
83 82 64 0
132 105 133 0
81 82 105 0
134 135 158 0
99 127 129 0
107 135 134 0
132 157 136 0
104 132 120 0
81 104 93 0
81 105 104 0
133 157 132 0
104 105 132 0
189 163 188 0
120 149 119 0
163 150 136 0
177 201 176 0
189 177 163 0
176 178 151 0
177 176 150 0
201 178 176 0
152 151 178 0
151 152 124 0
149 176 151 0
152 123 124 0
182 185 184 0
162 182 184 0
183 158 182 0
158 160 182 0
189 202 177 0
188 163 162 0
161 187 186 0
201 177 202 0
159 133 134 0
183 182 162 0
160 185 182 0
135 160 158 0
186 185 160 0
209 208 187 0
209 231 208 0
209 232 231 0
208 186 187 0
228 208 231 0
228 206 208 0
223 202 224 0
203 223 225 0
201 202 223 0
151 121 149 0
149 121 119 0
150 149 120 0
150 176 149 0
300 275 299 0
299 274 297 0
329 299 327 0
382 384 359 0
278 303 304 0
279 278 304 0
277 302 303 0
255 277 278 0
255 273 277 0
257 256 278 0
279 257 278 0
279 258 257 0
273 251 272 0
277 273 298 0
252 251 273 0
254 231 232 0
275 254 253 0
301 276 300 0
328 301 330 0
328 302 298 0
228 250 251 0
301 300 330 0
254 276 272 0
275 300 276 0
274 275 253 0
275 276 254 0
298 273 272 0
234 252 255 0
256 234 255 0
278 256 255 0
222 245 224 0
256 235 233 0
258 245 235 0
211 230 234 0
230 229 252 0
206 186 208 0
232 253 254 0
185 206 207 0
246 223 224 0
201 203 178 0
211 210 189 0
246 225 223 0
247 246 268 0
223 203 201 0
387 385 404 0
225 246 247 0
385 360 361 0
388 365 363 0
334 333 362 0
245 268 246 0
230 207 229 0
280 296 290 0
363 362 387 0
388 363 387 0
365 335 363 0
304 334 305 0
333 360 362 0
336 354 325 0
405 387 404 0
388 406 390 0
247 268 269 0
389 407 391 0
380 366 391 0
364 390 389 0
335 365 336 0
334 335 305 0
334 363 335 0
365 364 336 0
362 363 334 0
388 390 365 0
405 388 387 0
390 364 365 0
421 407 406 0
407 408 391 0
406 407 390 0
421 408 407 0
366 380 354 0
267 290 268 0
306 335 336 0
296 306 325 0
305 335 306 0
279 305 280 0
304 333 334 0
325 348 319 0
407 389 390 0
423 422 434 0
425 436 437 0
409 392 411 0
424 409 411 0
418 400 409 0
410 408 423 0
423 408 422 0
425 423 436 0
425 410 423 0
410 391 408 0
411 392 410 0
424 411 425 0
424 418 409 0
392 391 410 0
296 325 319 0
290 296 319 0
291 290 319 0
267 280 290 0
280 306 296 0
258 280 267 0
279 304 305 0
319 349 320 0
267 245 258 0
421 422 408 0
436 434 445 0
437 436 447 0
437 424 425 0
436 445 447 0
436 423 434 0
456 455 464 0
392 409 400 0
445 455 447 0
471 463 462 0
476 471 470 0
469 461 463 0
483 481 482 0
478 477 473 0
478 479 481 0
479 480 482 0
479 475 480 0
481 479 482 0
474 475 479 0
478 474 479 0
477 478 481 0
473 474 478 0
472 473 477 0
472 465 466 0
458 465 457 0
440 450 449 0
466 465 458 0
459 467 466 0
450 459 458 0
449 450 458 0
441 429 430 0
441 440 429 0
442 441 430 0
450 440 441 0
473 472 466 0
475 476 480 0
439 440 449 0
448 439 449 0
427 414 428 0
439 427 428 0
435 424 437 0
447 446 437 0
433 420 431 0
442 432 444 0
419 420 432 0
416 419 430 0
403 420 419 0
401 403 419 0
402 420 403 0
446 453 443 0
461 460 452 0
415 416 429 0
428 415 429 0
396 371 397 0
433 444 432 0
420 433 432 0
431 443 433 0
398 399 417 0
379 398 402 0
379 372 398 0
449 457 448 0
438 439 448 0
430 429 416 0
401 419 416 0
442 451 441 0
467 460 468 0
451 450 441 0
459 466 458 0
378 403 401 0
419 432 430 0
417 420 402 0
454 453 463 0
442 444 452 0
431 435 443 0
417 431 420 0
443 453 454 0
444 443 454 0
452 444 454 0
442 430 432 0
435 446 443 0
451 459 450 0
452 451 442 0
452 460 451 0
474 473 467 0
458 457 449 0
474 467 468 0
468 469 474 0
459 460 467 0
446 435 437 0
455 456 447 0
433 443 444 0
469 463 471 0
461 452 454 0
415 396 397 0
469 471 475 0
428 414 415 0
392 380 391 0
425 411 410 0
400 376 392 0
375 349 376 0
400 375 376 0
400 374 375 0
373 374 399 0
373 346 374 0
291 320 292 0
268 290 291 0
245 267 268 0
258 279 280 0
319 320 291 0
399 400 418 0
475 471 476 0
474 469 475 0
468 460 461 0
462 470 471 0
453 462 463 0
461 454 463 0
446 456 453 0
464 470 462 0
345 317 318 0
320 346 318 0
351 378 377 0
322 351 323 0
352 378 351 0
345 372 344 0
402 398 417 0
346 373 345 0
318 346 345 0
347 349 375 0
346 347 374 0
320 349 347 0
431 418 424 0
431 417 418 0
378 379 403 0
398 372 373 0
403 379 402 0
378 352 379 0
399 418 417 0
392 376 380 0
374 400 399 0
374 347 375 0
346 320 347 0
292 320 318 0
292 269 291 0
291 269 268 0
371 377 397 0
372 379 352 0
431 424 435 0
461 469 468 0
459 451 460 0
456 446 447 0
462 456 464 0
462 453 456 0
344 317 345 0
415 414 396 0
440 428 429 0
440 439 428 0
439 438 427 0
397 401 416 0
415 397 416 0
371 350 377 0
377 378 401 0
397 377 401 0
350 351 377 0
466 467 473 0
413 426 412 0
426 427 438 0
413 412 394 0
394 412 393 0
367 337 339 0
369 395 394 0
413 395 414 0
426 413 427 0
394 395 413 0
321 322 323 0
289 293 315 0
271 289 287 0
271 293 289 0
271 294 293 0
351 350 323 0
312 311 310 0
288 313 286 0
341 311 312 0
343 370 342 0
369 340 341 0
324 351 322 0
295 324 322 0
344 352 324 0
337 367 338 0
286 312 285 0
339 368 367 0
310 339 337 0
310 311 339 0
312 310 285 0
340 311 341 0
340 339 311 0
394 368 369 0
368 339 340 0
309 337 338 0
309 307 337 0
266 286 264 0
313 314 342 0
270 294 1
248 270 1
226 248 1
204 226 1
180 204 1
155 180 1
127 155 1
123 127 1
152 123 1
178 152 1
203 178 1
225 203 1
247 225 1
269 247 1
292 269 1
318 292 1
317 318 1
316 317 1
295 316 1
294 295 1
1 3 2
3 7 2
7 13 2
13 20 2
20 29 2
29 39 2
39 52 2
52 65 2
65 84 2
84 107 2
107 135 2
135 161 2
161 187 2
187 209 2
209 232 2
232 253 2
253 274 2
274 297 2
297 326 2
326 353 2
137 140 2
140 111 2
111 112 2
112 110 2
110 86 2
86 85 2
85 69 2
69 70 2
70 67 2
67 68 2
68 54 2
54 41 2
41 30 2
30 22 2
22 15 2
15 11 2
11 6 2
6 5 2
5 2 2
2 1 2
483 481 2
481 477 2
477 472 2
472 465 2
465 457 2
457 448 2
448 438 2
438 426 2
426 412 2
412 393 2
393 367 2
367 338 2
338 308 2
308 282 2
282 260 2
260 236 2
236 212 2
212 190 2
190 164 2
164 137 2
353 355 2
355 382 2
382 384 2
384 381 2
381 383 2
383 386 2
386 404 2
404 405 2
405 406 2
406 421 2
421 422 2
422 434 2
434 445 2
445 455 2
455 464 2
464 470 2
470 476 2
476 480 2
480 482 2
482 483 2
