80 120 38
0 0 4
0.266666666667 0 1
0.533333333333 0 1
0.8 0 1
1.06666666667 0 1
1.33333333333 0 1
1.6 0 1
1.86666666667 0 1
2.13333333333 0 1
2.4 0 1
2.66666666667 0 1
2.93333333333 0 1
3.2 0 1
3.46666666667 0 1
3.73333333333 0 1
4 0 2
0 0.5 4
0.266666666667 0.5 0
0.533333333333 0.5 0
0.8 0.5 0
1.06666666667 0.5 0
1.33333333333 0.5 0
1.6 0.5 0
1.86666666667 0.5 0
2.13333333333 0.5 0
2.4 0.5 0
2.66666666667 0.5 0
2.93333333333 0.5 0
3.2 0.5 0
3.46666666667 0.5 0
3.73333333333 0.5 0
4 0.5 2
0 1 4
0.266666666667 1 0
0.533333333333 1 0
0.8 1 0
1.06666666667 1 0
1.33333333333 1 0
1.6 1 0
1.86666666667 1 0
2.13333333333 1 0
2.4 1 0
2.66666666667 1 0
2.93333333333 1 0
3.2 1 0
3.46666666667 1 0
3.73333333333 1 0
4 1 2
0 1.5 4
0.266666666667 1.5 0
0.533333333333 1.5 0
0.8 1.5 0
1.06666666667 1.5 0
1.33333333333 1.5 0
1.6 1.5 0
1.86666666667 1.5 0
2.13333333333 1.5 0
2.4 1.5 0
2.66666666667 1.5 0
2.93333333333 1.5 0
3.2 1.5 0
3.46666666667 1.5 0
3.73333333333 1.5 0
4 1.5 2
0 2 4
0.266666666667 2 3
0.533333333333 2 3
0.8 2 3
1.06666666667 2 3
1.33333333333 2 3
1.6 2 3
1.86666666667 2 3
2.13333333333 2 3
2.4 2 3
2.66666666667 2 3
2.93333333333 2 3
3.2 2 3
3.46666666667 2 3
3.73333333333 2 3
4 2 3
1 2 18 0
1 18 17 0
2 3 19 0
2 19 18 0
3 4 20 0
3 20 19 0
4 5 21 0
4 21 20 0
5 6 22 0
5 22 21 0
6 7 23 0
6 23 22 0
7 8 24 0
7 24 23 0
8 9 25 0
8 25 24 0
9 10 26 0
9 26 25 0
10 11 27 0
10 27 26 0
11 12 28 0
11 28 27 0
12 13 29 0
12 29 28 0
13 14 30 0
13 30 29 0
14 15 31 0
14 31 30 0
15 16 32 0
15 32 31 0
17 18 34 0
17 34 33 0
18 19 35 0
18 35 34 0
19 20 36 0
19 36 35 0
20 21 37 0
20 37 36 0
21 22 38 0
21 38 37 0
22 23 39 0
22 39 38 0
23 24 40 0
23 40 39 0
24 25 41 0
24 41 40 0
25 26 42 0
25 42 41 0
26 27 43 0
26 43 42 0
27 28 44 0
27 44 43 0
28 29 45 0
28 45 44 0
29 30 46 0
29 46 45 0
30 31 47 0
30 47 46 0
31 32 48 0
31 48 47 0
33 34 50 0
33 50 49 0
34 35 51 0
34 51 50 0
35 36 52 0
35 52 51 0
36 37 53 0
36 53 52 0
37 38 54 0
37 54 53 0
38 39 55 0
38 55 54 0
39 40 56 0
39 56 55 0
40 41 57 0
40 57 56 0
41 42 58 0
41 58 57 0
42 43 59 0
42 59 58 0
43 44 60 0
43 60 59 0
44 45 61 0
44 61 60 0
45 46 62 0
45 62 61 0
46 47 63 0
46 63 62 0
47 48 64 0
47 64 63 0
49 50 66 0
49 66 65 0
50 51 67 0
50 67 66 0
51 52 68 0
51 68 67 0
52 53 69 0
52 69 68 0
53 54 70 0
53 70 69 0
54 55 71 0
54 71 70 0
55 56 72 0
55 72 71 0
56 57 73 0
56 73 72 0
57 58 74 0
57 74 73 0
58 59 75 0
58 75 74 0
59 60 76 0
59 76 75 0
60 61 77 0
60 77 76 0
61 62 78 0
61 78 77 0
62 63 79 0
62 79 78 0
63 64 80 0
63 80 79 0
1 2 1
2 3 1
3 4 1
4 5 1
5 6 1
6 7 1
7 8 1
8 9 1
9 10 1
10 11 1
11 12 1
12 13 1
13 14 1
14 15 1
15 16 1
16 32 2
32 48 2
48 64 2
64 80 2
66 65 3
67 66 3
68 67 3
69 68 3
70 69 3
71 70 3
72 71 3
73 72 3
74 73 3
75 74 3
76 75 3
77 76 3
78 77 3
79 78 3
80 79 3
17 1 4
33 17 4
49 33 4
65 49 4
