120 188 50
0.208383632612 0 2
0.160037724422 0 2
0.0633459080413 0 2
0.111691816232 0 2
0.353421357183 0 2
0.305075448993 0 2
0.256729540803 0 2
0.401767265374 0 2
0.450116772295 0 2
0.5 0 2
0 0 2
0.221275588052 0.0484265224062 0
0.105217513633 0.0541046288834 0
0.365407742807 0.0497615345752 0
0.266105317665 0.0866354647434 0
0.428515156292 0.0428575900317 0
0.485962899389 0.0365728136958 0
0.537190040569 0.0371900405691 2
0 0.157948716612 2
0.109141472736 0.135374499658 0
0.200549715292 0.151680103877 0
0.380832070001 0.113795706782 0
0.286867224599 0.162473126885 0
0.575439620226 0.0754396202262 2
0.486442764277 0.0920585516301 0
0 0.350666664574 2
0.114071643179 0.237484133884 0
0.487053577031 0.162685084541 0
0.312351937976 0.255561919981 0
0.400641887542 0.196036252609 0
0.613775798337 0.113775798337 2
0.557057448343 0.135666622953 0
0 0.555999998053 2
0.176260436211 0.466358975243 0
0.332004247636 0.387152122927 0
0 0.761333331532 2
0.540359377526 0.22132637079 0
0.467389361157 0.26652062602 0
0.652111976447 0.152111976447 2
0.601264528652 0.183604534188 0
0 1 2
0.318271117116 0.567404635267 0
0.167343618225 0.640910482491 0
0.451322379104 0.428177170715 0
0.156114357762 0.860729311137 0
0.614600676777 0.260931032441 0
0.542865638661 0.334409307488 0
0.7 0.2 2
0.588142731309 0.475219995273 0
0.374857147859 1 2
0.4985435592 0.695674901778 0
0.715491537578 0.314752133717 0
0.841494593236 0.2 2
0.736963270825 0.473802002262 0
0.808000005881 1 2
2 0.871750000035 2
2 1 2
0.897638346811 0.649093786719 0
0.963668447978 0.390606490374 0
1.01235852475 0.2 2
2 0.773499999773 2
1.24533333884 1 2
1.66358974696 1 2
1.88553105275 0.785751359198 0
1.22002779592 0.649093786719 0
1.20138702886 0.390606490374 0
1.18764147525 0.2 2
2 0.67524999951 2
1.90453780014 0.628902943692 0
1.6021358992 0.699473350821 0
1.79892476806 0.584894181448 0
1.41283633403 0.473812564391 0
1.34444710393 0.349201449751 0
1.35850540676 0.2 2
2 0.576999999247 2
1.91829285605 0.515392813427 0
1.56202149341 0.492391653119 0
1.69672841374 0.509167666509 0
1.82003527649 0.474328754399 0
1.4634702006 0.314753293399 0
1.5475237272 0.152476272797 2
1.5 0.2 2
1.58549560896 0.114504391037 2
2 0.478749998985 2
1.91829285605 0.433198265623 0
1.62243445955 0.356988974295 0
1.75487857224 0.392178442555 0
1.83658571312 0.387646535074 0
1.60626869957 0.169324789401 0
1.60203068359 0.236833076446 0
1.6393163442 0.136285080189 0
1.62346749072 0.0765325092768 2
2 0.380499998722 2
1.90195142869 0.345104464325 0
1.70406136718 0.273666151356 0
1.80390285636 0.309708929024 0
1.66146087458 0.0385391254239 2
1.69852170963 0.160244876156 0
1.68278078901 0.0934613294373 0
2 0.28224999846 2
1.91362992489 0.247296927774 0
1.83502029901 0.215484431447 0
1.76347649793 0.186531401646 0
1.7 0 2
1.71856844669 0.0388215473749 0
1.74908199371 0.112384591962 0
2 0.183999998197 2
1.88160630891 0.163746403357 0
1.82341869019 0.133601295374 0
1.80835091016 0.0818326565733 0
1.75782551207 0 2
1.76124766531 0.059267401797 0
2 0.0873333317593 2
1.92819231882 0.112008375267 0
1.86761982866 0.051280723234 0
1.81647012997 0 2
2 0 2
1.93124355714 0.0513156407525 0
1.87514675331 0 2
1.93382337666 0 2
45 41 36 0
27 34 26 0
38 35 29 0
43 45 36 0
35 42 34 0
51 45 43 0
41 45 50 0
42 43 34 0
44 51 42 0
37 46 47 0
54 51 49 0
51 50 45 0
42 35 44 0
43 33 34 0
51 43 42 0
36 33 43 0
33 26 34 0
54 58 51 0
53 59 52 0
51 55 50 0
59 58 54 0
60 59 53 0
60 67 66 0
73 67 74 0
73 72 66 0
82 80 74 0
89 81 83 0
98 89 91 0
90 81 89 0
65 59 66 0
62 55 58 0
73 66 67 0
80 73 74 0
80 72 73 0
58 65 62 0
59 60 66 0
58 59 65 0
77 70 72 0
87 78 86 0
71 70 78 0
79 71 78 0
88 79 87 0
88 85 79 0
76 75 69 0
66 72 65 0
101 96 102 0
70 62 65 0
70 65 72 0
105 104 111 0
105 97 104 0
110 115 109 0
105 112 106 0
116 115 110 0
99 91 92 0
105 99 97 0
106 98 99 0
109 106 110 0
118 117 113 0
114 118 113 0
101 108 107 0
118 115 119 0
117 118 120 0
114 115 118 0
107 114 113 0
106 103 98 0
114 109 115 0
102 103 109 0
118 119 120 0
108 109 114 0
116 119 115 0
84 85 93 0
106 109 103 0
91 99 98 0
112 111 116 0
106 112 110 0
105 111 112 0
94 101 100 0
110 112 116 0
94 100 93 0
108 101 102 0
109 108 102 0
114 107 108 0
107 100 101 0
99 92 97 0
105 106 99 0
86 90 95 0
79 78 87 0
80 90 86 0
94 96 101 0
75 76 84 0
96 103 102 0
85 88 94 0
93 85 94 0
71 69 64 0
95 98 103 0
88 87 96 0
90 82 81 0
87 86 95 0
80 82 90 0
83 92 91 0
89 83 91 0
103 96 95 0
90 89 98 0
90 98 95 0
76 85 84 0
69 71 76 0
68 69 75 0
68 64 69 0
64 70 71 0
71 79 76 0
77 86 78 0
70 77 78 0
72 80 77 0
95 96 87 0
96 94 88 0
64 57 63 0
57 64 56 0
64 68 61 0
56 64 61 0
86 77 80 0
63 70 64 0
63 62 70 0
76 79 85 0
17 10 18 0
17 9 10 0
24 32 25 0
30 38 29 0
32 28 25 0
32 37 28 0
28 37 38 0
18 24 25 0
24 31 32 0
16 14 8 0
17 16 9 0
17 25 16 0
31 40 32 0
13 11 3 0
3 4 13 0
4 2 13 0
15 12 7 0
11 13 19 0
12 1 7 0
21 12 15 0
21 13 12 0
15 7 6 0
25 28 22 0
14 16 22 0
17 18 25 0
29 27 21 0
44 35 38 0
47 44 38 0
37 47 38 0
46 52 47 0
49 51 44 0
29 34 27 0
20 19 13 0
21 20 13 0
27 19 20 0
23 29 21 0
15 23 21 0
15 22 23 0
26 19 27 0
12 2 1 0
20 21 27 0
14 6 5 0
22 16 25 0
22 28 30 0
40 37 32 0
39 40 31 0
39 48 40 0
13 2 12 0
52 46 48 0
46 37 40 0
48 46 40 0
52 49 47 0
53 52 48 0
54 49 52 0
59 54 52 0
58 55 51 0
22 30 23 0
23 30 29 0
6 14 15 0
16 8 9 0
15 14 22 0
5 8 14 0
28 38 30 0
47 49 44 0
29 35 34 0
41 36 2
36 33 2
33 26 2
26 19 2
19 11 2
57 63 2
63 62 2
62 55 2
55 50 2
50 41 2
117 113 2
113 107 2
107 100 2
100 93 2
93 84 2
84 75 2
75 68 2
68 61 2
61 56 2
56 57 2
104 111 2
111 116 2
116 119 2
119 120 2
120 117 2
82 81 2
81 83 2
83 92 2
92 97 2
97 104 2
48 53 2
53 60 2
60 67 2
67 74 2
74 82 2
10 18 2
18 24 2
24 31 2
31 39 2
39 48 2
11 3 2
3 4 2
4 2 2
2 1 2
1 7 2
7 6 2
6 5 2
5 8 2
8 9 2
9 10 2
