227 374 80
1.10013932028 1.79972135943 2
1 2 2
1.05006966014 1.89986067972 2
2 0 2
1.95128766318 0.0974246736375 2
1.90125388256 0.197492234882 2
1.20027864057 1.59944271886 2
1.15020898043 1.69958203915 2
1.02503482916 1.74965169919 0
0.987482582859 1.82475618769 0
0.949930339858 1.89986067972 2
1.30041796085 1.39916407829 2
1.25034830071 1.49930339858 2
1.25968633365 1.26966020052 0
1.350487621 1.29902475801 2
1.89749223805 0 2
1.85118422242 0.297631555166 2
1.83114899689 0.129358015237 0
1.78533545666 0.220122359246 0
1.10013931971 1.59944271808 0
1.14694868126 1.51970746631 0
1.03337977187 1.66620226388 0
0.949930338608 1.69958203882 0
0.899860679716 1.79972135943 2
1.17633557569 1.24270509831 1
1.19207367514 1.3397807306 0
1.19491381431 1.42405607731 0
1.24270509831 1.17633557569 1
1.40055728114 1.19888543773 2
1.31825459266 1.18712814402 0
1.45062694128 1.09874611744 2
1.60083592171 0.798328156588 2
1.65090558185 0.698188836303 2
1.79777087826 0 2
1.76342735892 0.0635400499809 0
1.80111456227 0.39777087545 2
1.70097524199 0.598049516019 2
1.75104490213 0.497910195735 2
1.73802199162 0.314809740349 0
1.69693063292 0.193411350896 0
1.03627640152 1.53951216977 0
1.09581209011 1.44325158665 0
0.899860678241 1.59944271808 0
0.849791019573 1.69958203915 2
1.09270509831 1.28531695489 1
1.07891046831 1.36282097591 0
1.28531695489 1.09270509831 1
1.36443582202 1.095596385 0
1.396055225 0.999333199765 0
1.55076626156 0.898467476872 2
1.50069660142 0.998606797156 2
1.50547327083 0.805074666725 0
1.58892296021 0.632061064925 0
1.54954715357 0.710812680247 0
1.57126131791 0.548751498432 0
1.69804951848 0 2
1.6589579647 0.0713660694392 0
1.69839511569 0.394063490158 0
1.64847074146 0.494105952786 0
1.62955096208 0.32613269745 0
1.59643562557 0.19295807266 0
1.55359967766 0.465441931938 0
0.974433329212 1.48147709647 0
0.853054568314 1.51970260629 0
0.799721359431 1.59944271886 2
1 1.3 1
0.953125664455 1.37008325017 0
1.3 1 1
1.36879523999 0.904518860024 0
1.4424446789 0.872164955709 0
1.438073576 0.76361066053 0
1.48067932276 0.664916568962 0
1.48406442682 0.517577292787 0
1.5983281587 0 2
1.54703046758 0.0955110929865 0
1.49607812874 0.192413120058 0
1.54968634215 0.37811819285 0
1.54577300869 0.29079445581 0
1.46160299644 0.437646366039 0
0.837680074701 1.42922361393 0
0.749651699289 1.49930339858 2
0.907294901688 1.28531695489 1
0.807926322807 1.3397807306 0
1.28531695489 0.907294901688 1
1.32651866081 0.817734961508 0
1.37529263578 0.696904892472 0
1.41452917803 0.569712653635 0
1.39346095295 0.490202665134 0
1.49860679892 0 2
1.45517928354 0.0795925769765 0
1.41821018766 0.192391950723 0
1.45720279082 0.322746140717 0
1.37239272787 0.410692678681 0
0.699582039147 1.39916407829 2
0.730423540464 1.3198411884 0
0.823664424312 1.24270509831 1
1.24270509831 0.823664424312 1
1.27425115553 0.727574302096 0
1.30223826785 0.633074887966 0
1.31674965826 0.523079692966 0
1.39888543913 0 2
1.37061889867 0.0961856657604 0
1.3423523581 0.192371330496 0
1.35350488895 0.305438349215 0
1.28587514664 0.384552551885 0
0.757294901688 1.17633557569 1
0.649512379005 1.29902475801 2
0.705732392339 1.2350293388 0
0.714683045111 1.09270509831 1
1.17633557569 0.757294901688 1
1.19144969405 0.664109312896 0
1.23110536126 0.570923725209 0
1.22167793654 0.477738137522 0
1.19432469746 0.362914350874 0
1.14351489716 0.538798698447 0
1.29916407935 0 2
1.28356336391 0.0961856657604 0
1.24671847294 0.181546883361 0
1.2523619344 0.288556997281 0
0.659527971372 1.14352397792 0
0.599442718863 1.19888543773 2
0.631757963571 1.07142873329 0
0.7 1 1
1.18139002089 0.28519824835 0
1.09270509831 0.714683045111 1
1.10771552996 0.614177703964 0
1.13773639206 0.413167021902 0
1.12531005407 0.333871732497 0
1.02804747832 0.503119049038 0
1.19944271957 0 2
1.1839490312 0.103741075475 0
1.16845534432 0.207482151974 0
0.54937305872 1.09874611744 2
0.714683045111 0.907294901688 1
0.60398795782 0.999333498906 0
0.631204757962 0.904518860024 0
1.09768444318 0.207482151974 0
0.999999998976 0.601559524519 0
1 0.7 1
0.907294901688 0.714683045111 1
0.757294901688 0.823664424312 1
0.823664424312 0.757294901688 1
1.05629566885 0.304829198127 0
0.999999998976 0.404678573557 0
0.952660756607 0.508395704449 0
1.09972135978 0 2
1.08524612932 0.101609732026 0
0.499303398578 0.998606797156 2
0.661757373588 0.794297414175 0
0.54257198483 0.901571407171 0
0.585967278933 0.811543705605 0
0.999999998976 0.203219465076 0
0.999999998976 0.101609732026 0
0.906308209716 0.614177703964 0
0.808550303903 0.664109312896 0
0.735093540358 0.746263702071 0
0.943704329099 0.304829198127 0
0.877274036945 0.513672361908 0
0.904334824909 0.413167021902 0
0.90231555477 0.207482151974 0
1 0 2
0.449233738436 0.898467476872 2
0.624707362172 0.696904892472 0
0.49452672712 0.805074666725 0
0.548366112866 0.723007440216 0
0.914753868631 0.101609732026 0
0.793436181632 0.570923725209 0
0.737155772035 0.64379012002 0
0.847038342568 0.311223228472 0
0.831080200645 0.45085652466 0
0.831544653635 0.207482151974 0
0.900278640217 0 2
0.399164078294 0.798328156588 2
0.664095755261 0.622996924187 0
0.56098893514 0.644355385512 0
0.457796181699 0.7316023622 0
0.816050966751 0.103741075475 0
0.741509744005 0.477738137522 0
0.703019523251 0.54996077721 0
0.779504327364 0.272320324529 0
0.763207941189 0.384552551885 0
0.732037347771 0.192371330496 0
0.800557280434 0 2
0.349094418152 0.698188836303 2
0.581026685686 0.552688996729 0
0.497270510157 0.591805880602 0
0.411077037743 0.632061064925 0
0.727058722663 0.0907734401438 0
0.659338334537 0.369321453263 0
0.632762480465 0.450085923588 0
0.685914180415 0.288556997281 0
0.657647639846 0.192371330496 0
0.700835920651 0 2
0.29902475801 0.598049516019 2
0.508650426947 0.506613157137 0
0.425217569364 0.54350406662 0
0.629381099278 0.0961856657604 0
0.520030343737 0.421420437769 0
0.594575496292 0.321893343536 0
0.59628384234 0.2412065986 0
0.351529256489 0.494105952786 0
0.544820714411 0.0795925769765 0
0.601114560868 0 2
0.248955097867 0.497910195735 2
0.403244816235 0.391724258188 0
0.503921869215 0.192413120058 0
0.454226989256 0.29079445581 0
0.301604882257 0.394063490158 0
0.452969530367 0.0955110929865 0
0.501393201085 0 2
0.198885437725 0.39777087545 2
0.353125836563 0.292443297424 0
0.403564372383 0.19295807266 0
0.261978006328 0.314809740349 0
0.353047732127 0.0953774671959 0
0.401671841302 0 2
0.148815777583 0.297631555166 2
0.303069365027 0.193411350896 0
0.214664541292 0.220122359246 0
0.236572639026 0.0635400499809 0
0.301950481519 0 2
0.0987461174408 0.197492234882 2
0.168851001066 0.129358015237 0
0.202229121736 0 2
0.0487123368187 0.0974246736375 2
0.102507761952 0 2
0 0 2
49 51 31 0
68 49 48 0
68 69 49 0
48 49 31 0
49 70 51 0
84 69 68 0
84 85 69 0
49 69 70 0
86 85 98 0
99 98 111 0
100 88 87 0
113 100 112 0
113 105 100 0
86 98 99 0
71 86 72 0
71 85 86 0
54 71 72 0
85 97 98 0
70 85 71 0
70 69 85 0
70 52 50 0
54 33 32 0
110 111 98 0
104 93 105 0
76 92 91 0
78 77 92 0
104 105 119 0
79 93 92 0
60 58 77 0
87 73 72 0
77 62 79 0
92 77 79 0
78 60 77 0
59 37 55 0
55 62 59 0
72 55 53 0
72 73 55 0
52 70 71 0
54 52 71 0
32 50 52 0
88 100 93 0
100 87 99 0
79 88 93 0
79 73 88 0
85 84 97 0
54 32 52 0
50 51 70 0
97 110 98 0
111 125 126 0
126 125 139 0
115 126 129 0
127 115 129 0
113 112 115 0
111 110 125 0
112 111 126 0
112 99 111 0
59 58 38 0
87 86 99 0
62 77 59 0
90 101 89 0
74 75 89 0
91 103 102 0
90 91 102 0
76 78 92 0
33 54 53 0
140 154 139 0
101 90 102 0
154 138 139 0
137 124 128 0
115 112 126 0
114 113 127 0
105 93 100 0
118 103 119 0
147 131 132 0
117 103 118 0
116 117 130 0
116 101 102 0
131 147 146 0
118 131 117 0
118 132 131 0
153 152 166 0
161 153 166 0
147 152 153 0
130 131 146 0
132 137 147 0
119 132 118 0
104 119 103 0
91 104 103 0
92 93 104 0
128 127 144 0
137 128 143 0
114 127 128 0
105 114 119 0
105 113 114 0
155 140 142 0
168 163 174 0
138 129 126 0
145 144 129 0
170 181 169 0
158 170 159 0
158 167 170 0
155 167 154 0
140 155 154 0
142 156 155 0
186 175 176 0
168 156 163 0
156 149 163 0
207 212 213 0
198 199 190 0
197 200 206 0
192 191 200 0
205 212 207 0
143 128 144 0
159 157 144 0
137 132 124 0
152 137 143 0
152 147 137 0
130 117 131 0
146 147 161 0
166 160 171 0
161 166 172 0
152 160 166 0
161 147 153 0
138 126 139 0
154 145 138 0
115 127 113 0
154 158 145 0
144 127 129 0
124 132 119 0
114 124 119 0
114 128 124 0
188 182 192 0
183 188 193 0
177 182 188 0
172 177 183 0
166 171 177 0
143 157 152 0
180 181 191 0
171 180 182 0
177 171 182 0
160 169 171 0
169 181 180 0
157 169 160 0
152 157 160 0
143 144 157 0
159 170 169 0
177 172 166 0
169 157 159 0
208 205 201 0
204 208 201 0
149 141 134 0
176 187 186 0
142 141 156 0
227 226 225 0
224 223 226 0
223 225 226 0
220 224 221 0
215 220 221 0
223 224 220 0
214 218 212 0
216 215 221 0
216 210 209 0
222 225 223 0
222 223 219 0
218 220 215 0
219 214 217 0
220 218 223 0
218 213 212 0
223 218 219 0
215 213 218 0
214 208 211 0
222 219 217 0
212 205 208 0
219 218 214 0
213 206 207 0
210 202 209 0
188 197 193 0
213 209 206 0
210 203 202 0
214 211 217 0
197 203 193 0
204 211 208 0
177 188 183 0
199 200 191 0
189 199 191 0
198 207 199 0
197 202 203 0
192 197 188 0
192 200 197 0
180 191 182 0
206 202 197 0
190 178 179 0
185 190 179 0
163 175 174 0
186 195 185 0
207 198 205 0
207 200 199 0
189 181 178 0
199 189 190 0
191 181 189 0
209 215 216 0
206 209 202 0
213 215 209 0
169 180 171 0
170 167 178 0
145 158 159 0
144 145 159 0
129 138 145 0
154 167 158 0
200 207 206 0
182 191 192 0
189 178 190 0
176 175 165 0
195 198 190 0
196 195 186 0
196 205 195 0
179 167 168 0
185 195 190 0
175 186 185 0
174 175 185 0
163 165 175 0
196 201 205 0
187 196 186 0
187 194 196 0
178 167 179 0
170 178 181 0
168 155 156 0
179 168 174 0
167 155 168 0
149 151 163 0
141 149 156 0
136 135 150 0
151 136 150 0
134 123 136 0
201 194 204 0
198 195 205 0
196 194 201 0
185 179 174 0
176 184 187 0
208 214 212 0
16 4 5 0
18 16 5 0
6 18 5 0
35 40 57 0
16 18 34 0
6 17 19 0
39 40 19 0
57 61 75 0
19 40 18 0
6 19 18 0
17 39 19 0
39 60 40 0
58 39 36 0
35 18 40 0
34 35 56 0
34 18 35 0
102 103 117 0
116 102 117 0
90 76 91 0
75 76 90 0
61 60 78 0
40 60 61 0
36 39 17 0
58 60 39 0
38 58 36 0
38 37 59 0
53 37 33 0
100 99 112 0
73 87 88 0
62 73 79 0
62 55 73 0
72 86 87 0
55 37 53 0
59 77 58 0
104 91 92 0
76 61 78 0
75 61 76 0
89 75 90 0
74 56 57 0
57 56 35 0
61 57 40 0
75 74 57 0
53 54 72 0
164 165 151 0
184 176 173 0
184 194 187 0
164 173 176 0
164 162 173 0
165 164 176 0
151 150 164 0
163 151 165 0
149 134 136 0
150 135 148 0
164 150 162 0
151 149 136 0
150 148 162 0
123 135 136 0
123 109 122 0
135 133 148 0
122 120 133 0
123 122 135 0
109 120 122 0
122 133 135 0
120 121 133 0
106 120 109 0
108 107 121 0
106 108 120 0
106 96 108 0
120 108 121 0
95 96 83 0
95 108 96 0
94 95 83 0
107 108 95 0
83 82 67 0
80 83 67 0
43 64 63 0
80 81 94 0
80 64 81 0
83 80 94 0
107 95 94 0
96 82 83 0
67 63 80 0
66 67 82 0
66 45 46 0
43 65 64 0
2 11 3 0
3 11 10 0
10 11 24 0
23 10 24 0
9 1 10 0
10 1 3 0
23 9 10 0
23 22 9 0
44 23 24 0
43 63 41 0
43 23 44 0
44 65 43 0
22 8 9 0
46 42 63 0
20 7 8 0
22 20 8 0
1 9 8 0
23 43 22 0
63 64 80 0
46 63 67 0
41 20 22 0
42 41 63 0
42 21 41 0
81 64 65 0
41 21 20 0
46 45 26 0
42 46 27 0
13 21 27 0
41 22 43 0
67 66 46 0
21 13 7 0
20 21 7 0
42 27 21 0
25 26 45 0
12 13 27 0
26 14 12 0
46 26 27 0
25 14 26 0
27 26 12 0
14 15 12 0
28 14 25 0
28 30 14 0
14 30 15 0
30 29 15 0
47 30 28 0
48 31 29 0
47 48 30 0
47 68 48 0
48 29 30 0
47 68 1
28 47 1
25 28 1
45 25 1
66 45 1
82 66 1
96 82 1
106 96 1
109 106 1
123 109 1
134 123 1
141 134 1
142 141 1
140 142 1
139 140 1
125 139 1
110 125 1
97 110 1
84 97 1
68 84 1
2 11 2
11 24 2
24 44 2
44 65 2
65 81 2
81 94 2
94 107 2
107 121 2
121 133 2
133 148 2
148 162 2
162 173 2
173 184 2
184 194 2
194 204 2
204 211 2
211 217 2
217 222 2
222 225 2
225 227 2
4 5 2
5 6 2
6 17 2
17 36 2
36 38 2
38 37 2
37 33 2
33 32 2
32 50 2
50 51 2
51 31 2
31 29 2
29 15 2
15 12 2
12 13 2
13 7 2
7 8 2
8 1 2
1 3 2
3 2 2
227 226 2
226 224 2
224 221 2
221 216 2
216 210 2
210 203 2
203 193 2
193 183 2
183 172 2
172 161 2
161 146 2
146 130 2
130 116 2
116 101 2
101 89 2
89 74 2
74 56 2
56 34 2
34 16 2
16 4 2
