167 205 129
-0.915561580532 -0.402177527218 1
-0.888422049679 -0.459027269035 1
-0.945941493482 -0.471006394089 0
-0.857756861983 -0.514055384904 1
-0.93906775271 -0.343731764702 1
-0.994621613433 -0.408279991082 0
-1.975 -1 2
-1.03164573447 -0.488855344893 0
-0.928298275695 -0.545583777222 0
-0.786349797394 -0.617781329562 1
-0.823687710664 -0.567043498605 1
-0.974821677873 -0.22298534677 1
-0.958847283174 -0.283921920464 1
-1.77002590922 -0.720820099133 2
-1.01466270677 -0.316326429117 0
-1.13102811534 -0.376785807316 0
-1.56462752114 -1 2
-1.36449041145 -0.715189298083 0
-1.08586410744 -0.606850439301 0
-0.946993960649 -0.647994748332 0
-0.745891295757 -0.666067527333 1
-0.842557797437 -0.678936984416 0
-0.702472763228 -0.711710470653 1
-0.986927543236 -0.161163867255 1
-1.04121527176 -0.228111788865 0
-0.995116837754 -0.0987028172554 1
-1.29687868187 -0.431610522326 0
-1.57335636375 -0.45295119923 2
-1.15699104669 -0.237051165859 0
-0.447381922148 -0.894342886449 1
-0.502805945395 -0.864399191862 1
-0.607455885263 -0.7943532758 1
-0.656266504013 -0.754529027879 1
-1.13764595166 -1 2
-0.556234609396 -0.831025173965 1
-0.924267731953 -0.818115967462 0
-0.780430533521 -0.749110488852 0
-0.988293744732 0.152562243559 1
-1.11064816404 -0.124856701753 0
-0.999357062626 -0.0358500702152 1
-0.999631390727 0.0271449459931 1
-0.995938733393 0.0900322389075 1
-1.37668681828 -0.185082299326 2
-0.148257087966 -0.988948747403 1
-0.210231439186 -0.977651538018 1
-0.331434633005 -0.943478070389 1
-0.39018248702 -0.920737427741 1
-0.271371497915 -0.962474569348 1
-0.710664382167 -1 2
-0.942025817094 0.335540045457 1
-0.961283692593 0.275560202355 1
-0.892386183329 0.451272269128 1
-0.97672676348 0.214486812859 1
-1.18001727281 0.0827866005777 2
-0.919029560857 0.394188315258 1
-0.862201417371 0.506565372345 1
-0.0856943862479 -0.996321365134 1
-0.313316198141 -1 2
-0.828595049661 0.559848197084 1
-0.983347727342 0.350655500481 2
-0.791700445326 0.610909293206 1
-1.83690953073e-16 -1 1
-0.786678181873 0.618524400385 2
-0.751664018693 0.659546027386 1
-0.662813066117 0.748784747359 1
-0.510315221038 0.859987286403 1
-0.563451194288 0.826149205363 1
-0.614351140583 0.789032593896 1
-0.708644652247 0.705565387255 1
-0.218738155664 0.975783467762 1
-0.27974371617 0.960074585688 1
0.0856943862479 -0.996321365134 1
0.313316198141 -1 2
-0.0314978070283 0.999503699179 1
-0.156864544085 0.987620003554 1
-0.0943684236644 0.995537220382 1
-0.455154088196 0.890412552336 1
-0.339639128187 0.940555697221 1
-0.398186699867 0.917304262063 1
-0.590008636405 0.886393300289 2
-0.271609329492 1.02982887949 0
0.148257087966 -0.988948747403 1
0.331434633005 -0.943478070389 1
0.271371497916 -0.962474569348 1
0.210231439186 -0.977651538018 1
0.39018248702 -0.920737427741 1
0.710664382167 -1 2
0.0314978070283 0.999503699179 1
0.0943684236644 0.995537220382 1
0.156864544085 0.987620003554 1
-0.0260048237429 1.07086900079 0
-0.112040039911 1.06922753935 0
-0.393339090937 1.15426220019 2
-0.175740778398 1.19367280351 0
0.656266504013 -0.754529027879 1
0.447381922148 -0.894342886449 1
0.607455885263 -0.7943532758 1
0.556234609396 -0.831025173965 1
0.502805945395 -0.864399191862 1
0.702472763228 -0.711710470653 1
1.13764595166 -1 2
0.946304335612 -0.791815719912 0
0.218738155664 0.975783467762 1
0.0600303964713 1.07251046628 0
0.163740503137 1.06267795281 0
-0.0164296859586 1.19575417047 0
-0.196669545468 1.4221311001 2
0.27974371617 0.960074585688 1
0 1.69 2
0.745891295757 -0.666067527333 1
0.84255779339 -0.678936984416 0
1.56462752114 -1 2
0.90253958012 -0.591807337874 0
1.02826381969 -0.608251411507 0
1.3645047364 -0.715171306914 0
1.12795542529 -0.758524147199 0
0.271609325445 1.02982887949 0
0.142881410527 1.19783553743 0
0.196669545468 1.4221311001 2
0.339639128187 0.940555697221 1
0.398186699867 0.917304262063 1
0.823687710664 -0.567043498605 1
1.77002590922 -0.720820099133 2
0.786349797394 -0.617781329562 1
1.975 -1 2
0.857756861983 -0.514055384904 1
0.950823190257 -0.49561116218 0
1.09571182397 -0.457188399779 0
1.57335636375 -0.45295119923 2
1.29687718463 -0.431610409021 0
0.708644652247 0.705565387255 1
0.455154088196 0.890412552336 1
0.614351140583 0.789032593896 1
0.510315221038 0.859987286403 1
0.393339090937 1.15426220019 2
0.563451194288 0.826149205363 1
0.662813066117 0.748784747359 1
0.888422049679 -0.459027269035 1
0.994655875966 -0.408282637556 0
0.915561580532 -0.402177527218 1
1.06114960779 -0.355485939173 0
1.14659396016 -0.268497563365 0
1.37668681828 -0.185082299326 2
0.751664018693 0.659546027386 1
0.590008636405 0.886393300289 2
0.791700445326 0.610909293206 1
0.93906775271 -0.343731764702 1
0.958847283174 -0.283921920464 1
1.03102714339 -0.266847830681 0
1.11064816 -0.124856701753 0
1.18001727281 0.0827866005777 2
0.828595049661 0.559848197084 1
0.862201417371 0.506565372345 1
0.786678181873 0.618524400385 2
0.986927543236 -0.161163867255 1
0.999357062626 -0.0358500702152 1
0.995938733393 0.0900322389075 1
0.974821677873 -0.22298534677 1
0.995116837754 -0.0987028172554 1
0.999631390727 0.0271449459931 1
0.988293744732 0.152562243559 1
0.892386183329 0.451272269128 1
0.97672676348 0.214486812859 1
0.983347727342 0.350655500481 2
0.919029560857 0.394188315258 1
0.961283692593 0.275560202355 1
0.942025817094 0.335540045457 1
160 151 157 0
157 151 161 0
161 151 163 0
163 151 164 0
7 17 14 0
18 14 17 0
18 17 34 0
36 19 34 0
27 28 18 0
58 62 57 0
58 57 44 0
45 58 44 0
48 58 45 0
46 58 48 0
47 58 46 0
49 58 47 0
30 49 47 0
31 49 30 0
35 49 31 0
35 32 49 0
33 49 32 0
37 36 49 0
23 37 33 0
23 21 37 0
37 21 22 0
37 49 33 0
22 10 11 0
4 9 11 0
36 37 22 0
49 36 34 0
21 10 22 0
2 9 4 0
6 8 3 0
9 20 11 0
8 19 9 0
16 8 6 0
16 19 8 0
19 20 9 0
18 19 27 0
6 5 15 0
15 5 13 0
12 25 13 0
16 6 15 0
18 28 14 0
3 9 2 0
1 3 2 0
8 9 3 0
34 19 18 0
20 22 11 0
36 20 19 0
36 22 20 0
16 29 27 0
19 16 27 0
1 6 3 0
1 5 6 0
29 43 27 0
29 16 15 0
25 15 13 0
24 25 12 0
29 15 25 0
24 39 25 0
43 28 27 0
26 39 24 0
26 40 39 0
29 39 43 0
39 54 43 0
25 39 29 0
40 54 39 0
41 54 40 0
42 54 41 0
38 54 42 0
38 53 54 0
53 60 54 0
51 60 53 0
50 60 51 0
55 60 50 0
52 60 55 0
56 60 52 0
59 60 56 0
60 59 63 0
61 63 59 0
61 64 63 0
64 80 63 0
64 69 80 0
69 65 80 0
65 68 80 0
68 67 80 0
66 80 67 0
77 80 66 0
93 80 77 0
79 93 77 0
78 93 79 0
78 71 81 0
81 93 78 0
70 81 71 0
70 75 81 0
75 92 81 0
92 94 81 0
92 75 76 0
91 76 74 0
88 104 91 0
94 93 81 0
91 106 92 0
107 93 94 0
119 109 107 0
106 107 94 0
92 106 94 0
118 119 106 0
91 104 106 0
106 104 118 0
76 91 92 0
74 88 91 0
88 89 104 0
106 119 107 0
89 105 104 0
89 90 105 0
117 103 108 0
104 105 118 0
90 103 105 0
118 135 119 0
105 117 118 0
117 135 118 0
103 117 105 0
108 120 117 0
120 135 117 0
120 121 135 0
121 132 135 0
132 145 135 0
134 145 132 0
136 145 134 0
133 145 136 0
137 145 133 0
131 145 137 0
144 145 131 0
154 145 144 0
146 154 144 0
146 152 154 0
152 164 154 0
153 164 152 0
162 164 153 0
165 164 162 0
167 164 165 0
166 164 167 0
166 163 164 0
62 73 72 0
72 73 82 0
82 73 85 0
85 73 84 0
84 73 83 0
83 73 86 0
86 73 87 0
86 87 96 0
96 87 99 0
99 87 98 0
98 87 97 0
97 87 95 0
95 87 100 0
100 87 102 0
87 101 102 0
111 100 102 0
115 101 112 0
123 115 112 0
130 128 116 0
111 102 113 0
122 111 113 0
124 110 111 0
111 110 100 0
122 124 111 0
115 116 101 0
126 113 127 0
126 122 113 0
125 123 112 0
123 129 115 0
130 115 129 0
130 129 143 0
142 130 143 0
116 102 101 0
130 116 115 0
114 113 102 0
128 114 116 0
128 139 127 0
147 139 141 0
114 102 116 0
127 138 126 0
128 127 114 0
139 140 127 0
114 127 113 0
142 143 150 0
141 142 149 0
128 130 142 0
127 140 138 0
141 139 128 0
142 141 128 0
149 148 141 0
147 140 139 0
150 143 151 0
155 150 159 0
149 142 150 0
148 149 158 0
148 147 141 0
158 149 155 0
155 149 150 0
156 150 151 0
159 150 156 0
156 151 160 0
62 57 1
57 44 1
44 45 1
45 48 1
48 46 1
46 47 1
47 30 1
30 31 1
31 35 1
35 32 1
32 33 1
33 23 1
23 21 1
21 10 1
10 11 1
11 4 1
4 2 1
2 1 1
1 5 1
5 13 1
13 12 1
12 24 1
24 26 1
26 40 1
40 41 1
41 42 1
42 38 1
38 53 1
53 51 1
51 50 1
50 55 1
55 52 1
52 56 1
56 59 1
59 61 1
61 64 1
64 69 1
69 65 1
65 68 1
68 67 1
67 66 1
66 77 1
77 79 1
79 78 1
78 71 1
71 70 1
70 75 1
75 76 1
76 74 1
74 88 1
88 89 1
89 90 1
90 103 1
103 108 1
108 120 1
120 121 1
121 132 1
132 134 1
134 136 1
136 133 1
133 137 1
137 131 1
131 144 1
144 146 1
146 152 1
152 153 1
153 162 1
162 165 1
165 167 1
167 166 1
166 163 1
163 161 1
161 157 1
157 160 1
160 156 1
156 159 1
159 155 1
155 158 1
158 148 1
148 147 1
147 140 1
140 138 1
138 126 1
126 122 1
122 124 1
124 110 1
110 100 1
100 95 1
95 97 1
97 98 1
98 99 1
99 96 1
96 86 1
86 83 1
83 84 1
84 85 1
85 82 1
82 72 1
72 62 1
7 17 2
17 34 2
34 49 2
49 58 2
58 62 2
62 73 2
73 87 2
87 101 2
101 112 2
112 125 2
109 107 2
107 93 2
93 80 2
80 63 2
63 60 2
60 54 2
54 43 2
43 28 2
28 14 2
14 7 2
125 123 2
123 129 2
129 143 2
143 151 2
151 164 2
164 154 2
154 145 2
145 135 2
135 119 2
119 109 2
