335 569 120
0 1.73037034673 2
0 1.27072388853 2
0 1.42393937459 2
0 1.57715486066 2
0.114947821493 1.68111624045 0
0 1.88358583279 2
0.115861557346 1.3198980313 0
0 1.11750840246 2
0.114948866437 1.53909662016 0
0 2.34323229099 2
0 2.03680131886 2
0 0.504646458198 2
0 0.81107743033 2
0.106229411723 0.737010346574 0
0 0.964292916396 2
0 0.657861944264 2
0 2.19001680492 2
0.255608608998 1.60287965341 0
0.254933120361 1.80772206495 0
0.242854465957 2.04404753069 0
0.256959598565 1.19319484261 0
0.115832692306 1.06747771219 0
0.256284097635 1.39803724186 0
0 2.49644777706 2
0.135746619045 2.30187422987 0
0.137705212773 0.567011344495 0
0 0.351430972132 2
0.246356060772 0.841414579322 0
0 0.198215486066 2
0 2.64966326312 2
0 2.80287874919 2
0.426712030756 1.65428702231 0
0.425584364147 1.96206287729 0
0.327695381388 2.35790551254 0
0.524464924936 2.15363027198 0
0.427839697365 1.34651117962 0
0.428967363973 1.03873533694 0
0.230622807174 2.68432304429 0
0.43130851782 0.634136440357 0
0.287260218791 0.423077263984 0
0.155815148312 0.230484299856 0
0.52864002914 0.847094279851 0
0 0 2
0 3 2
0.310395234905 3.15519761745 2
0.713900129976 1.92152478157 0
0.715289905402 1.57741318967 0
0.797144739886 2.37369159113 0
0.59920881763 2.68377462084 0
0.71643690962 1.22915658795 0
0.75924925819 0.932898670466 0
0.444062511698 3 2
0.675298868562 0.360693902393 0
0.803476153504 0.626852308332 0
0.452747252747 0 2
0.609848117278 3.30492405864 2
1.20875388203 3.60437694101 2
0.909300999652 3.45465049983 2
1.09106387616 1.47731134759 0
1.14281034781 2.11980086381 0
1.19647282865 2.62258114305 0
0.982969905293 3 2
1.25193165415 0.880502034706 0
0.997142857143 0 2
1.14962668917 0.349462009081 0
1.36472287734 3.34573291768 0
1.5082067644 3.7541033822 2
1.57821095826 1.79999999078 0
1.81680759119 1.19999999693 0
1.57570984194 2.39999999693 0
1.57320873996 3 2
1.58321316632 0.59999999078 0
1.58571428571 0 2
1.78861804045 3.43138370154 0
1.80765964677 3.90382982339 2
2.10711252915 4.05355626457 2
2.40656541152 4.20328270576 2
2.16561519798 2.39999999693 0
2.16778282967 1.79999999078 0
2.29016585135 0.59999999078 0
2.28799820737 1.19999999693 0
2.16344757464 3 2
2.17428571429 0 2
2.22877940315 3.4207283837 0
2.28263510026 3.7675519616 0
2.71895854372 3.98571368333 0
2.70601829389 4.35300914695 2
3.30492405864 4.65246202932 2
3.60437694101 4.80218847051 2
3.00547117627 4.50273558813 2
3.90382982339 4.95191491169 2
3.31266883566 4.32431904769 0
2.63780626807 2.39999999693 0
2.75735470108 1.79999999078 0
2.76285714286 0 2
2.87907075349 0.59999999078 0
2.75918884814 1.19999999693 0
2.75368640931 3 2
2.73464851206 3.54037039451 0
3.09734981628 4.0947945442 0
3.66986547361 4.44431308167 0
4.00108497758 4.6460141336 0
4.20328270576 5.10164135288 2
4.25360810687 4.7722757044 0
3.57420825751 3.94528841697 0
4.50273558813 5.25136779407 2
4.80218847051 5.40109423525 2
3.22771161183 2.39999999693 0
3.22921228654 1.79999999078 0
3.35142857143 0 2
3.34992789733 0.59999999078 0
3.58452276381 1.19999999693 0
3.33196012334 3.50695614871 0
3.34392524398 3 2
3.91681140523 4.11658999698 0
4.30998269665 4.40331990673 0
4.59863247573 4.89853727519 0
3.92485787917 3.5988248161 0
4.91874632791 5.09105894956 0
5.17953310737 5.22145233929 0
5.10164135288 5.55082067644 2
3.81761696787 2.39999999693 0
3.70106987199 1.79999999078 0
3.93883281177 0.59999999078 0
3.94 0 2
4.17376116288 1.19999999693 0
3.93416407865 3 2
4.23248281966 3.9181886444 0
4.62939327697 4.2703281963 0
4.9060086581 4.60327228802 0
4.3698811447 3.48602384421 0
5.2654000594 4.85836057026 0
5.44031987455 5.35184572903 0
5.40109423525 5.70054711763 2
6 6 2
4.1718436416 2.09999998771 0
5.70054711763 5.85027355881 2
4.52523660988 2.39999999693 0
4.52607031532 1.79999999078 0
4.52773771391 0.59999999078 0
4.52857142857 0 2
4.76299954966 1.19999999693 0
4.52440291332 3 2
4.96227804046 3.5605871583 0
4.96766246442 4.12948440838 0
5.35979847457 4.4591931447 0
5.62900292895 4.89472083263 0
5.73637461805 5.22758967609 0
5.72686732479 5.5303753706 0
5.99999999385 5.70054710805 0
6.29945288237 5.85027355881 2
6.59890576475 5.70054711763 2
6.89835864712 5.55082067644 2
4.99742767997 2.39999999693 0
5.11564218673 1.79999999078 0
5.11664262835 0.59999999078 0
5.11714285714 0 2
5.23419016584 1.19999999693 0
5.11464174799 3 2
5.42713013741 3.5628789785 0
5.4639563956 4.01875733055 0
5.9156283443 4.72396816781 0
5.70245678304 4.27343488836 0
6.04162602373 5.0994737355 0
6.16956466806 5.35156951961 0
6.48346699242 5.35184572903 0
6.82046688033 5.22145233929 0
7.19781152949 5.40109423525 2
5.58733303602 2.39999999693 0
5.70521405815 1.79999999078 0
5.70554754278 0.59999999078 0
5.70571428571 0 2
5.70538079432 1.19999999693 0
5.70488058266 3 2
5.89198227124 3.56517082328 0
6.06194006564 4.07855569756 0
6.21630633773 4.54484392856 0
6.35620866805 4.96744143112 0
7.14884438268 5.02479884599 0
6.73459992831 4.85836057026 0
7.49726441187 5.25136779407 2
7.79671729424 5.10164135288 2
8.09617017661 4.95191491169 2
6.41266695169 2.39999999693 0
6.29461919339 1.19999999693 0
6.29478592956 1.79999999078 0
6.29445244492 0.59999999078 0
6.29428571429 0 2
6.29511941734 3 2
6.35869585588 3.56517082328 0
6.4164468581 4.07855569756 0
6.64020151313 4.4591931447 0
7.09399132961 4.60327228802 0
7.40136751197 4.89853727519 0
7.65389065356 4.7722757044 0
7.99891501013 4.6460141336 0
8.39562305899 4.80218847051 2
6.88435780097 1.79999999078 0
7.00257230774 2.39999999693 0
6.88535825201 3 2
6.76580980957 1.19999999693 0
6.76530958877 0.59999999078 0
6.88285714286 0 2
6.96315863315 3.59786881534 0
7.03233752328 4.12948440838 0
7.49389609219 4.40331990673 0
7.88996967235 4.30334371608 0
8.28451878995 4.48516659065 0
8.69507594136 4.65246202932 2
8.99452882373 4.50273558813 2
7.30440856619 3.79884104961 0
8.57012256977 4.32431904769 0
7.47392967238 1.79999999078 0
7.23700043805 1.19999999693 0
7.47559708668 3 2
7.47476337783 2.39999999693 0
7.3542145032 0.59999999078 0
7.47142857143 0 2
7.63011884301 3.48602384421 0
7.6266533172 3.98862056983 0
8.25449015019 4.03093921312 0
8.84778751717 4.24399067959 0
9.29398170611 4.35300914695 2
8.67838532559 3.94528841697 0
9.59343458848 4.20328270576 2
8.29893011572 1.79999999078 0
7.82623882482 1.19999999693 0
8.06466873387 2.39999999693 0
8.06583592135 3 2
8.06116717594 0.59999999078 0
8.06 0 2
8.16701077592 3.55289048241 0
8.99286651201 3.76064750074 0
9.28104144398 3.98571368333 0
8.66803986437 3.50695614871 0
9.71736488744 3.7675519616 0
9.89288747085 4.05355626457 2
9.11126431423 3.40531099821 0
8.65457408992 2.39999999693 0
8.4154772239 1.19999999693 0
8.77078770117 1.79999999078 0
8.65607475602 3 2
8.65007209037 0.59999999078 0
8.64857142857 0 2
9.50454494367 3.4207736605 0
9.86643216281 3.42620579538 0
10.1923403532 3.90382982339 2
9.24631359069 3 2
9.24447943367 2.39999999693 0
9.00471561067 1.19999999693 0
9.24264528662 1.79999999078 0
9.23897699252 0.59999999078 0
9.23714285714 0 2
9.83655242536 3 2
10.2113819473 3.43138370154 0
10.4917932356 3.7541033822 2
10.791246118 3.60437694101 2
9.83221715803 1.79999999078 0
9.95209907568 2.39999999693 0
9.59395399745 1.19999999693 0
9.70983413636 0.59999999078 0
9.82571428571 0 2
10.42679126 3 2
10.6352771104 3.34573291768 0
11.0906990003 3.45465049983 2
12 2.80287874919 2
11.6896047651 3.15519761745 2
11.3901518827 3.30492405864 2
12 3 2
10.1831923965 1.19999999693 0
10.4217890294 1.79999999078 0
10.4242901458 2.39999999693 0
10.2987390508 0.59999999078 0
10.4142857143 0 2
10.8594364783 2.65084149181 0
11.0170300947 3 2
11.8465413724 2.77073222387 0
12 2.64966326312 2
11.5559374883 3 2
12 2.49644777706 2
10.798354576 1.41938041832 0
10.6553994235 1.0598674839 0
10.8012952449 2.1182964273 0
10.7940134609 0.340987833441 0
11.0028571429 0 2
11.4007911701 2.62395778906 0
11.112799509 2.37955880377 0
11.8642520533 2.43393177272 0
11.6723008322 2.56218327327 0
12 2.34323229099 2
11.1109215112 1.91968774555 0
11.1074299601 1.10697761309 0
11.1096032099 1.60462303786 0
11.105747084 0.620918329918 0
11.3246988203 0.36069133306 0
11.5472527473 0 2
11.5748184925 2.27954589257 0
11.3663295339 2.05875853408 0
11.8642533687 2.16981755986 0
12 2.19001680492 2
11.3650688398 1.75666585868 0
11.3612867944 0.850387832476 0
11.363808158 1.45457318328 0
11.3625474762 1.15248050788 0
11.5686880154 0.721075025407 0
11.6675797264 0.438548691514 0
12 0 2
11.8441848394 0.230484299856 0
11.6918881095 1.97902646016 0
11.8636506942 2.01123410306 0
12 2.03680131886 2
11.745064298 1.67933720497 0
11.57319567 1.57801454875 0
11.6894356999 1.02185088705 0
11.7082897461 1.24469103175 0
11.7268225151 1.46373369038 0
11.8622961026 0.831125545065 0
11.8622961026 0.567012217331 0
12 0.198215486066 2
12 0.351430972132 2
11.8635927305 1.84045535153 0
12 1.88358583279 2
12 1.73037034673 2
11.8850511213 1.53909662016 0
11.8625071444 1.16054297561 0
11.8625655752 0.989764113435 0
11.8841384304 1.3198980313 0
12 0.81107743033 2
12 0.964292916396 2
12 0.657861944264 2
12 0.504646458198 2
12 1.57715486066 2
12 1.42393937459 2
12 1.27072388853 2
12 1.11750840246 2
135 137 150 0
133 134 121 0
133 149 134 0
178 180 167 0
151 135 150 0
162 146 163 0
178 164 162 0
148 133 147 0
119 120 107 0
178 192 180 0
165 148 164 0
151 165 166 0
150 149 165 0
177 191 192 0
164 147 162 0
165 164 178 0
148 147 164 0
163 161 176 0
177 163 176 0
146 161 163 0
189 190 175 0
204 200 215 0
191 204 205 0
190 200 204 0
176 190 191 0
189 200 190 0
120 121 107 0
133 120 132 0
147 133 132 0
146 147 132 0
178 166 165 0
148 149 133 0
133 121 120 0
119 107 106 0
103 117 106 0
132 120 119 0
129 145 130 0
128 129 116 0
128 144 129 0
130 132 119 0
116 129 117 0
145 146 130 0
117 103 104 0
160 161 144 0
160 175 161 0
159 160 144 0
174 175 160 0
101 102 89 0
117 104 116 0
129 130 117 0
119 106 117 0
103 91 104 0
102 104 91 0
89 102 91 0
101 115 102 0
131 118 127 0
159 144 143 0
128 118 131 0
144 145 129 0
143 144 131 0
159 174 160 0
116 104 102 0
92 101 88 0
100 92 90 0
118 128 115 0
127 118 113 0
127 143 131 0
100 90 87 0
86 100 87 0
85 86 77 0
99 100 86 0
127 113 114 0
118 115 105 0
92 88 90 0
105 92 100 0
101 89 88 0
105 101 92 0
115 116 102 0
105 115 101 0
113 105 100 0
113 118 105 0
128 116 115 0
86 87 77 0
113 98 114 0
99 86 85 0
77 76 85 0
85 76 75 0
98 99 84 0
99 113 100 0
84 99 85 0
74 84 85 0
82 98 84 0
98 113 99 0
52 45 44 0
56 45 52 0
62 56 52 0
62 58 56 0
58 62 66 0
71 66 62 0
66 71 74 0
57 66 67 0
57 58 66 0
74 67 66 0
82 74 71 0
82 84 74 0
67 74 75 0
74 85 75 0
269 267 279 0
268 279 267 0
276 279 268 0
265 276 268 0
257 264 265 0
265 264 276 0
256 255 264 0
255 256 247 0
263 255 254 0
264 257 256 0
263 264 255 0
263 276 264 0
247 237 236 0
247 236 246 0
236 245 246 0
225 236 237 0
234 245 236 0
236 225 234 0
222 223 210 0
235 233 224 0
254 245 248 0
246 255 247 0
254 246 245 0
254 255 246 0
225 223 234 0
224 212 221 0
222 212 224 0
233 222 224 0
210 209 222 0
212 222 209 0
224 221 232 0
238 245 233 0
234 223 222 0
233 245 234 0
222 233 234 0
238 248 245 0
235 238 233 0
235 242 238 0
209 197 208 0
196 197 183 0
196 208 197 0
208 207 221 0
209 208 212 0
196 207 208 0
182 195 183 0
182 194 195 0
219 229 232 0
220 207 206 0
205 220 206 0
219 232 220 0
220 221 207 0
242 232 229 0
235 224 232 0
242 235 232 0
242 248 238 0
212 208 221 0
182 181 194 0
211 219 220 0
205 211 220 0
204 219 211 0
181 168 179 0
167 168 153 0
167 179 168 0
179 193 194 0
178 177 192 0
176 161 175 0
177 176 191 0
162 147 146 0
177 162 163 0
177 178 162 0
130 146 132 0
176 175 190 0
145 161 146 0
145 144 161 0
119 117 130 0
128 131 144 0
174 189 175 0
219 204 215 0
229 219 215 0
232 221 220 0
193 205 206 0
191 190 204 0
206 194 193 0
205 204 211 0
207 196 195 0
195 196 183 0
206 195 194 0
206 207 195 0
205 193 192 0
180 192 193 0
179 180 193 0
181 179 194 0
167 180 179 0
152 166 153 0
152 151 166 0
149 150 137 0
134 149 137 0
148 165 149 0
167 166 178 0
167 153 166 0
165 151 150 0
191 205 192 0
44 31 38 2
38 30 24 2
52 38 49 2
31 30 38 2
38 24 34 2
24 10 25 2
38 52 44 2
20 17 11 2
52 49 62 2
25 17 20 2
24 25 34 2
10 17 25 2
20 11 6 2
5 19 6 2
35 34 20 2
1 5 6 2
49 38 34 2
4 5 1 2
6 19 20 2
9 5 4 2
3 9 4 2
7 21 23 2
36 21 37 2
9 23 18 2
9 7 23 2
48 49 34 2
33 46 35 2
61 49 48 2
7 9 3 2
63 54 65 2
68 59 69 2
18 32 19 2
19 32 33 2
69 59 63 2
68 60 59 2
60 48 46 2
59 60 46 2
68 70 60 2
32 47 46 2
42 51 37 2
51 54 63 2
37 51 50 2
42 54 51 2
22 15 28 2
37 22 28 2
21 7 22 2
8 22 7 2
63 72 69 2
49 61 62 2
25 20 34 2
79 81 94 2
18 19 5 2
36 32 23 2
32 46 33 2
23 32 18 2
36 50 47 2
50 63 59 2
35 20 33 2
65 73 72 2
35 48 34 2
80 83 95 2
81 80 97 2
94 81 97 2
69 80 81 2
69 72 80 2
46 48 35 2
79 68 69 2
79 78 68 2
60 61 48 2
78 70 68 2
78 82 70 2
71 62 61 2
80 95 96 2
93 98 82 2
71 61 70 2
109 112 123 2
108 109 123 2
94 97 109 2
96 97 80 2
110 96 95 2
111 124 112 2
110 111 96 2
110 124 111 2
108 98 93 2
124 110 125 2
94 93 79 2
112 109 97 2
108 93 94 2
109 108 94 2
126 139 123 2
124 126 112 2
142 139 126 2
138 127 122 2
114 98 108 2
140 125 141 2
157 156 141 2
112 97 111 2
122 114 108 2
201 202 214 2
171 156 157 2
173 171 187 2
173 158 171 2
186 170 185 2
170 155 158 2
171 172 187 2
122 108 123 2
136 122 123 2
139 136 123 2
139 138 136 2
127 114 122 2
97 96 111 2
140 126 124 2
143 138 154 2
143 127 138 2
156 140 141 2
140 142 126 2
125 140 124 2
156 142 140 2
172 171 157 2
172 188 187 2
126 123 112 2
155 154 139 2
138 122 136 2
159 143 154 2
201 185 202 2
198 201 214 2
198 186 201 2
170 186 184 2
170 173 185 2
184 186 198 2
154 155 169 2
158 156 171 2
187 202 185 2
187 188 202 2
154 138 139 2
155 170 169 2
142 155 139 2
158 173 170 2
142 158 155 2
142 156 158 2
169 159 154 2
184 199 200 2
174 169 184 2
169 170 184 2
159 169 174 2
185 173 187 2
203 202 188 2
203 218 217 2
184 189 174 2
198 213 199 2
184 198 199 2
186 185 201 2
217 214 202 2
203 217 202 2
218 230 217 2
230 240 227 2
231 230 218 2
227 226 213 2
243 240 230 2
243 250 240 2
230 227 217 2
250 241 240 2
213 198 214 2
200 199 215 2
200 189 184 2
244 230 231 2
228 239 229 2
215 228 229 2
216 213 228 2
227 240 226 2
214 227 213 2
214 217 227 2
249 259 254 2
250 251 241 2
250 260 251 2
243 230 244 2
243 244 253 2
216 215 199 2
213 216 199 2
213 226 228 2
216 228 215 2
252 250 243 2
262 261 253 2
273 274 284 2
226 239 228 2
252 243 253 2
282 273 284 2
302 292 294 2
281 270 282 2
258 270 271 2
282 284 294 2
261 273 270 2
261 262 273 2
260 270 258 2
241 226 240 2
249 241 251 2
239 226 241 2
249 239 241 2
258 249 251 2
248 242 249 2
242 229 239 2
292 282 294 2
304 292 302 2
293 301 291 2
304 303 292 2
304 315 303 2
285 284 274 2
285 295 284 2
249 242 239 2
260 250 252 2
261 260 252 2
253 261 252 2
262 274 273 2
249 254 248 2
258 259 249 2
260 258 251 2
271 259 258 2
272 275 263 2
271 272 259 2
283 287 275 2
271 283 272 2
271 281 283 2
291 298 287 2
292 303 293 2
313 316 312 2
301 313 312 2
303 316 313 2
315 327 316 2
323 322 321 2
263 254 259 2
308 307 319 2
318 308 320 2
318 320 331 2
305 302 295 2
318 305 306 2
314 302 305 2
317 305 318 2
317 328 329 2
305 317 314 2
330 328 317 2
317 329 326 2
326 335 325 2
335 334 325 2
295 294 284 2
306 295 296 2
306 305 295 2
308 306 296 2
307 308 296 2
319 320 308 2
318 330 317 2
308 318 306 2
331 330 318 2
261 270 260 2
296 295 285 2
281 271 270 2
273 282 270 2
301 303 313 2
282 292 281 2
302 314 304 2
295 302 294 2
301 312 309 2
315 316 303 2
314 315 304 2
314 325 315 2
315 325 327 2
326 314 317 2
335 326 329 2
325 314 326 2
333 327 334 2
316 324 312 2
334 327 325 2
333 324 327 2
324 332 323 2
316 327 324 2
333 332 324 2
279 277 269 2
277 289 288 2
269 277 266 2
279 289 277 2
266 277 278 2
309 297 298 2
321 309 312 2
299 288 297 2
278 277 288 2
297 287 298 2
279 286 289 2
279 276 286 2
276 275 286 2
278 288 280 2
321 312 323 2
311 310 322 2
310 309 321 2
322 310 321 2
311 299 310 2
300 299 311 2
297 286 287 2
299 297 309 2
289 286 297 2
275 287 286 2
263 275 276 2
263 259 272 2
298 301 309 2
283 291 287 2
293 281 292 2
301 293 303 2
291 281 293 2
298 291 301 2
283 281 291 2
288 289 297 2
290 288 299 2
290 280 288 2
300 290 299 2
275 272 283 2
310 299 309 2
312 324 323 2
41 43 55 2
41 29 43 2
53 40 55 2
27 29 41 2
39 40 53 2
27 41 40 2
53 64 65 2
63 65 72 2
50 51 63 2
28 42 37 2
39 54 42 2
15 13 28 2
40 41 55 2
26 40 39 2
26 27 40 2
53 65 54 2
39 53 54 2
12 26 16 2
12 27 26 2
55 64 53 2
14 16 26 2
28 14 26 2
28 13 14 2
26 39 28 2
15 22 8 2
72 73 83 2
14 13 16 2
42 28 39 2
37 21 22 2
64 73 65 2
7 3 2 2
8 7 2 2
79 69 81 2
78 79 93 2
82 78 93 2
82 71 70 2
80 72 83 2
70 61 60 2
18 5 9 2
47 50 59 2
46 47 59 2
32 36 47 2
21 36 23 2
37 50 36 2
33 20 19 2
135 137 2
137 134 2
134 121 2
121 107 2
107 106 2
106 103 2
103 91 2
91 89 2
89 88 2
88 90 2
90 87 2
87 77 2
77 76 2
76 75 2
75 67 2
67 57 2
57 58 2
58 56 2
56 45 2
45 44 2
269 267 2
267 268 2
268 265 2
265 257 2
257 256 2
256 247 2
247 237 2
237 225 2
225 223 2
223 210 2
210 209 2
209 197 2
197 183 2
183 182 2
182 181 2
181 168 2
168 153 2
153 152 2
152 151 2
151 135 2
44 31 2
31 30 2
30 24 2
24 10 2
10 17 2
17 11 2
11 6 2
6 1 2
1 4 2
4 3 2
3 2 2
2 8 2
8 15 2
15 13 2
13 16 2
16 12 2
12 27 2
27 29 2
29 43 2
269 279 2
276 279 2
263 276 2
254 263 2
248 254 2
242 248 2
229 242 2
215 229 2
200 215 2
189 200 2
174 189 2
159 174 2
143 159 2
127 143 2
114 127 2
98 114 2
82 98 2
71 82 2
62 71 2
52 62 2
44 52 2
307 319 2
319 320 2
320 331 2
331 330 2
330 328 2
328 329 2
329 335 2
335 334 2
334 333 2
333 332 2
332 323 2
323 322 2
322 311 2
311 300 2
300 290 2
290 280 2
280 278 2
278 266 2
266 269 2
43 55 2
55 64 2
64 73 2
73 83 2
83 95 2
95 110 2
110 125 2
125 141 2
141 157 2
157 172 2
172 188 2
188 203 2
203 218 2
218 231 2
231 244 2
244 253 2
253 262 2
262 274 2
274 285 2
285 296 2
296 307 2
