515 849 200
12 1.6555 1
12 1.90633333333 1
12 1.70566666667 1
12 1.75583333333 1
12 1.85616666667 1
12 1.806 1
12 1.60533333333 1
12 1.55516666667 1
12 1.13791666667 2
12 1.21183333333 2
12 1.28575 2
12 1.5 1
12 1.35966666667 2
12 1.4328030303 2
12 0.768333333333 2
12 0.916166666667 2
12 0.84225 2
12 2.15716666667 1
12 2.20733333333 1
12 0.694416666667 2
12 2.05683333333 1
12 2.107 1
11.9558392865 1.69438390582 0
11.9558385981 1.64566873046 0
12 1.9565 1
12 2.00666666667 1
11.9558487279 1.89756613504 0
11.9558392865 1.79181552277 0
11.9558392865 1.74309972044 0
11.9558385981 1.8405318783 0
11.9558385981 1.59695294043 0
11.9456282788 1.50596918073 0
12 1.064 2
12 0.990083333333 2
11.9343077866 1.16039431082 0
11.9343077866 1.30195252076 0
11.9343077866 1.23117341579 0
11.9404979729 1.44166237241 0
11.9349895326 1.37261561237 0
11.9296855078 0.780169973038 0
11.9296855078 0.917106900008 0
11.9565931459 2.14865519558 0
12 2.52965663923 2
12 2.5551466118 2
12 2.5 2
12 2.30766666667 1
12 2.2575 1
12 2.408 1
12 2.35783333333 1
12 2.457 1
11.9565933918 2.24430813356 0
11.9296910645 0.667178882814 0
12 0.6205 2
11.9405021896 2.04036504993 0
11.897673208 1.69879484773 0
11.8839987767 1.61395329303 0
11.9125287579 1.96368624071 0
11.897673208 1.88601413237 0
11.8976750397 1.79240294107 0
11.8735372652 1.5138836844 0
11.8040966228 1.57144954714 0
11.8636981961 1.03868808089 0
11.8492167976 1.16048047567 0
11.8506011393 1.29448789618 0
11.8624243972 1.40758344392 0
11.8231685214 0.625911907969 0
11.7507622666 0.895224692296 0
12 2.83553631001 2
12 2.68259647462 2
12 2.70808644719 2
12 2.65710650206 2
12 2.60612655693 2
12 2.58063658436 2
12 2.63161652949 2
12 2.75906639232 2
12 2.78455636488 2
12 2.81004633745 2
12 2.73357641975 2
11.8909213212 2.16739072061 0
11.9483735801 2.52454868334 0
11.9455406879 2.30095383097 0
11.9455396184 2.3954160246 0
11.8909213212 2.25596304476 0
11.9296870322 0.574765566061 0
12 0.546583333333 2
11.8540594489 0.506803974143 0
11.839198871 2.01232551626 0
11.8001604296 1.69631153233 0
11.8210110318 1.90167374816 0
11.8210110318 1.8131014363 0
11.7045363567 1.51848874001 0
11.6826662826 1.65617424022 0
11.7388520695 1.06879030929 0
11.688191061 1.19778518295 0
11.6964886288 1.36058806187 0
11.6616764324 0.591249384444 0
11.5956625791 0.895224692296 0
12 2.93749620027 2
12 2.86102628258 2
12 2.88651625514 2
12 2.91200622771 2
12 2.96298617284 2
11.9630564807 2.82695583769 0
11.9630588533 2.71084963438 0
11.9249412411 2.61472369331 0
11.8503812463 2.52443104724 0
11.9630576608 2.76890272374 0
11.7345743149 2.14657029886 0
11.8560086996 2.41479663655 0
11.7915267464 2.30706048329 0
12 0.472666666667 2
11.8819305991 0.399339715298 0
11.6616754244 0.40043984456 0
11.7199146367 1.98404721905 0
11.5866467168 2.05604771595 0
11.7199131492 1.82018965978 0
11.4684843343 1.68875825963 0
11.4959024214 1.47147961387 0
11.5476308954 1.06154995427 0
11.5221773275 1.26326033693 0
11.4344032791 0.593275973288 0
11.4129826784 0.889335830872 0
11.9630047375 2.91985032039 0
12 3 2
11.7066401613 3.14667991934 2
11.7088795002 2.52426122541 0
11.8162796363 2.7662857047 0
11.6411407764 2.3589167724 0
12 0.39875 2
12 0.324833333333 2
11.8104565326 0.221924057716 0
11.5725714286 0 2
11.4168280844 0.327372754949 0
11.4111421879 2.14317439091 0
11.4403147113 1.91199242194 0
11.263834967 1.47020456099 0
11.1554037047 1.72378302219 0
11.2986813392 1.23132074059 0
11.1020313618 1.06402488552 0
11.169334639 0.595639599576 0
11.5849934858 3 2
11.4064407407 3.29677962963 2
11.1797886884 2.37770361032 0
11.3726409953 2.61097053747 0
10.8057251029 3.59713744856 2
11.1060829218 3.44695853909 2
12 0 2
12 0.103083333333 2
12 0.177 2
12 0.250916666667 2
11.046031746 0 2
10.8570341399 0.355509615927 0
11.0344758842 2.00658613099 0
10.9509066164 1.46848523483 0
10.8607714864 0.858778080678 0
11.0694483715 3 2
10.8747162509 2.6199295425 0
10.505367284 3.74731635802 2
10.6633531556 3.34159157131 0
10.205009465 3.89749526749 2
10.4523809524 0 2
10.3372321544 0.59999999078 0
10.4689103334 2.39999999693 0
10.4647779858 1.79999999078 0
10.4606456383 1.19999999693 0
9.9046516461 4.04767417695 2
10.4730426808 3 2
10.2363012046 3.42750119393 0
9.89266272643 3.59932043916 0
9.85873015873 0 2
9.86231151862 0.59999999078 0
9.62733061298 1.19999999693 0
9.60429382717 4.19785308642 2
9.30393600824 4.34803199588 2
9.0035781893 4.49821090535 2
8.70322037037 4.64838981481 2
9.99178577568 2.39999999693 0
9.86947425275 1.79999999078 0
9.51632199037 3.87267715649 0
9.52961488192 3.41842445444 0
9.87663699 3 2
9.26507936508 0 2
9.14882861017 0.59999999078 0
9.27417051967 1.79999999078 0
9.03257786039 1.19999999693 0
9.13559734573 3.98208765414 0
8.86031142833 4.240484905 0
8.58093580937 4.3210554911 0
8.28100592204 4.44141212063 0
8.40286255144 4.79856872428 2
8.10250473251 4.94874763374 2
7.80214691358 5.09892654321 2
9.27720090624 2.39999999693 0
8.93148787015 3.53838260382 0
9.28023129923 3 2
6 6 2
6.30035781893 5.84982109053 2
8.67142857143 0 2
8.67390797443 0.59999999078 0
8.68134619266 2.39999999693 0
8.67886678658 1.79999999078 0
8.4378251078 1.19999999693 0
8.69492034623 3.94295891732 0
7.75338672321 4.76998635518 0
8.09604916228 4.11477816255 0
7.9810760347 4.56176878704 0
6.60071563786 5.69964218107 2
6.90107345679 5.5494632716 2
7.20143127572 5.39928436214 2
7.40663278774 4.89662947803 0
7.50178909465 5.24910545267 2
8.37736648375 3.30960525983 0
8.68382560846 3 2
6.23651434857 5.52952745392 0
5.69964218107 5.84982109053 2
5.99999999385 5.69964217432 0
5.39928436214 5.69964218107 2
8.07777777778 0 2
8.07970620234 0.59999999078 0
8.20422164724 2.39999999693 0
8.0835630535 1.79999999078 0
7.84307235521 1.19999999693 0
8.09204775234 3.59785312889 0
7.63737229056 3.98734351312 0
7.50059521543 4.40150716258 0
6.48464503762 5.35105763232 0
6.82322929411 5.22027020037 0
7.09948195675 4.60206379192 0
7.08480415799 5.08948276843 0
8.08741991769 3 2
5.09892654321 5.5494632716 2
6.16035496254 5.22684321732 0
5.72590382502 5.52952745392 0
5.43834555749 5.35105763232 0
7.48412698413 0 2
7.48550443024 0.59999999078 0
7.4896367778 2.39999999693 0
7.48825932042 1.79999999078 0
7.24831960262 1.19999999693 0
7.56848578804 3.52262952088 0
7.1802287204 4.05798827518 0
6.51859381527 4.96678214526 0
6.81489330923 4.3725070181 0
6.80903787372 4.78442296859 0
6.08335337628 4.89910234399 0
7.49101422692 3 2
5.1767706936 5.22027020037 0
4.79856872428 5.39928436214 2
5.48140617244 4.96678214526 0
5.82599114853 5.09877020549 0
6.89047619048 0 2
6.77202150949 0.59999999078 0
7.01251222008 2.39999999693 0
6.65356685003 1.19999999693 0
6.89295558733 1.79999999078 0
7.04579556514 3.56002384746 0
5.99999998156 4.54432625104 0
6.5389797985 4.01821520135 0
6.47125483106 4.54432626333 0
6.89460853615 3 2
4.49821090535 5.24910545267 2
5.04376418185 4.74796114997 0
4.84665345796 5.02327261318 0
5.52874515665 4.54432626333 0
4.19785308642 5.09892654321 2
6.29682539683 0 2
6.1778197374 0.59999999078 0
6.1780952215 1.19999999693 0
6.29792735064 2.39999999693 0
6.29765185425 1.79999999078 0
6.42437167598 3.53355197556 0
6.06081093611 4.07819428218 0
6.29820284538 3 2
4.59336719997 4.89662947803 0
5.18510667848 4.3725070181 0
4.77158446477 4.57473415628 0
5.34106202753 3.9582361328 0
3.89749526749 4.94874763374 2
4.2466132645 4.76998635518 0
5.70317460317 0 2
5.70289910166 0.59999999078 0
5.70262361756 1.19999999693 0
5.82080279293 2.39999999693 0
5.46488780944 1.79999999078 0
5.63848723344 3.56498143027 0
5.70179715462 3 2
5.02899306345 3.59741816176 0
4.49940477228 4.40150716258 0
4.81977126731 4.05798827518 0
3.59713744856 4.79856872428 2
3.29677962963 4.64838981481 2
4.01892395301 4.56176878704 0
5.10869732956 0.59999999078 0
5.10952380952 0 2
5.10787086497 1.19999999693 0
4.98831421993 1.79999999078 0
5.10621792349 2.39999999693 0
5.10539146385 3 2
4.50898577308 3 2
4.43151419967 3.52262952088 0
2.9964218107 4.49821090535 2
4.15918354351 4.11477816255 0
3.90795223537 3.59785312889 0
3.30063099554 4.3210554911 0
3.65977747427 4.44141214522 0
2.69606399176 4.34803199588 2
4.63377669382 0.59999999078 0
4.51587301587 0 2
4.51311811238 1.19999999693 0
4.51174066729 1.79999999078 0
4.51036320991 2.39999999693 0
4.15375948544 2.09999998771 0
3.91258008231 3 2
3.48321655624 3.56776251781 0
3.08322363727 4.09149815179 0
3.56031234726 3.94295891732 0
2.39570617283 4.19785308642 2
2.0953483539 4.04767417695 2
2.70249900492 3.98208765414 0
4.03957492173 0.59999999078 0
3.92222222222 0 2
0 2.93749620027 2
0 2.91200622771 2
0 2.78455636488 2
0 2.88651625514 2
0 2.86102628258 2
0 2.83553631001 2
0 2.81004633745 2
3.91836535979 1.19999999693 0
3.67897661019 1.79999999078 0
3.79577834047 2.39999999693 0
3.31617439154 3 2
3.06851211755 3.53838260382 0
2.71030140455 3.53838260382 0
1.79499053497 3.89749526749 2
2.26485700204 3.76326665884 0
3.44537314963 0.59999999078 0
3.32857142857 0 2
0 2.60612655693 2
0 2.58063658436 2
1.49463271604 3.74731635802 2
1.19427489711 3.59713744856 2
0 2.96298617284 2
0 2.75906639232 2
0 2.73357641975 2
0 2.70808644719 2
0.0369952502074 2.91985032039 0
0.0369438266726 2.79212426682 0
0.0369465312333 2.85017790939 0
0 2.65710650206 2
0 2.63161652949 2
0 2.68259647462 2
3.3236126072 1.19999999693 0
3.20240303297 1.79999999078 0
3.31865379505 2.39999999693 0
2.71976870077 3 2
2.20092197247 3.41837942351 0
1.76369878311 3.42750119393 0
2.85117137754 0.59999999078 0
2.73492063492 0 2
0 2.5 1
0.0279536454267 2.58989414134 0
0 2.5551466118 2
0 2.52965663923 2
1.33664683209 3.34159157131 0
0.893917078182 3.44695853909 2
0.593559259251 3.29677962963 2
0 3 2
0.293359838682 3.14667991934 2
0.0369411344053 2.73407066114 0
0.138149461465 2.85627432126 0
0.0750553290127 2.67735990675 0
2.72885985461 1.19999999693 0
2.72582946804 1.79999999078 0
2.60406892561 2.39999999693 0
2.12336301 3 2
1.52695731924 3 2
2.25696960544 0.59999999078 0
2.14126984127 0 2
0 2.457 1
0 2.408 1
0 2.35783333333 1
0.0987092084239 2.54880708125 0
0.930551628467 3 2
0.415006514205 3 2
0.211485974501 2.7136288779 0
2.13410710202 1.19999999693 0
2.13052573496 1.79999999078 0
2.00821421203 2.39999999693 0
1.12528848213 2.65952331625 0
1.53108965431 2.39999999693 0
1.54761904762 0 2
1.66276783334 0.59999999078 0
0 2.2575 1
0 2.30766666667 1
0.0544603692875 2.3954160246 0
0.0434166273507 2.33491389401 0
0.291120487536 2.55873338474 0
0.143991288118 2.41479663655 0
0.627358992423 2.61097053747 0
0.820211299341 2.37770361032 0
1.53935434943 1.19999999693 0
1.53522200187 1.79999999078 0
1.1299264842 1.9865678205 0
0.953968253968 0 2
1.16377262377 0.372035748392 0
1.1064195362 0.762787699572 0
0 2.20733333333 1
0.0434065958889 2.24430813356 0
0 2.15716666667 1
0.109080129405 2.30025046077 0
0.358859211354 2.32809645853 0
0.588857922693 2.23563548004 0
0.822285722031 2.12818270328 0
1.05136999679 1.13784552723 0
1.04909279351 1.468485493 0
0.835657045837 1.71344836691 0
0.427428571429 0 2
0.830665348685 0.595639599576 0
0.583171903326 0.327372754949 0
0.587010597053 0.889342039069 0
0.702267851031 1.09338044617 0
0.109078666483 2.21167688268 0
0.0434061287375 2.14865450715 0
0 2.05683333333 1
0 2.107 1
0.265425672816 2.18242769733 0
0.413353270864 2.09263406731 0
0.660909830836 1.91400793438 0
0.693696913583 1.36449895507 0
0.601323034243 1.72463402452 0
0 0 2
0.117362895904 0.23564092604 0
0.338323555271 0.448142715123 0
0.408891974957 0.650180312758 0
0.452368219432 1.06155079022 0
0.404337408584 0.895224692296 0
0.442253186779 1.29092815331 0
0.109078666483 2.07881839646 0
0 2.00666666667 1
0.0434151398422 2.03538425708 0
0.280086838529 2.02501311481 0
0.17436836136 1.99135340554 0
0.413353270864 1.94628864959 0
0.422751853077 1.7331579272 0
0.432383064397 1.51475198363 0
0 0.250916666667 2
0 0.103083333333 2
0 0.177 2
0.176831466311 0.746342249072 0
0 0.324833333333 2
0.090617285567 0.377950217089 0
0.176830654942 0.505482095485 0
0.259097086693 1.19292803769 0
0.249237721087 0.895224692296 0
0.261147918237 1.06879030929 0
0.238043962082 1.37177103951 0
0 1.9565 1
0.0874712298508 1.96368624071 0
0.28008535102 1.90211773869 0
0.178988955895 1.90167374816 0
0.283436019051 1.77884738751 0
0.311341345041 1.62746134468 0
0.21833188163 1.5392220626 0
0.0703129554822 0.574765566061 0
0.0703072759046 0.804117567748 0
0.070314479871 0.71170149726 0
0.070314479871 0.917106900008 0
0 0.39875 2
0.0703622522488 0.485724172728 0
0.117570864332 1.38604669467 0
0.149396807653 1.29448978938 0
0.150783190085 1.16048047567 0
0.136301791609 1.03868808089 0
0.14277296955 1.48109292591 0
0 1.90633333333 1
0.0441512598136 1.89756613504 0
0.102326779722 1.88601413237 0
0.178988955895 1.8131014363 0
0.19983955808 1.69631153233 0
0.116001211029 1.61395329303 0
0 0.990083333333 2
0 0.6205 2
0 0.546583333333 2
0 0.84225 2
0 0.768333333333 2
0 0.694416666667 2
0 0.916166666667 2
0 0.472666666667 2
0 1.4328030303 2
0.0610122414874 1.49192029069 0
0.0656922011317 1.30195252076 0
0 1.35966666667 2
0.0656922011317 1.23117341579 0
0.0656922011317 1.16039431082 0
0 1.064 2
0.0507487530361 1.5498528304 0
0 1.85616666667 1
0.044161389623 1.8405318783 0
0.102324947996 1.79240294107 0
0.102324947996 1.69879317582 0
0.0441607011893 1.6456680912 0
0 1.5 2
0 1.28575 2
0 1.21183333333 2
0 1.60533333333 1
0 1.13791666667 2
0 1.55516666667 1
0 1.806 1
0.0441607011893 1.79181552277 0
0.0441607011893 1.74309972044 0
0.0441607011893 1.69438390582 0
0 1.6555 1
0 1.75583333333 1
0 1.70566666667 1
216 196 215 0
234 233 217 0
214 226 207 0
232 214 216 0
232 226 214 0
233 232 216 0
264 250 249 0
245 232 250 0
257 245 250 0
257 259 245 0
242 226 232 0
244 242 259 0
243 244 259 0
228 229 244 0
227 208 226 0
197 196 216 0
233 216 215 0
217 233 215 0
234 250 233 0
141 124 125 0
141 125 142 0
156 141 142 0
146 156 142 0
146 145 159 0
159 156 146 0
158 159 145 0
167 156 159 0
159 158 168 0
168 158 160 0
181 168 169 0
167 159 168 0
160 169 168 0
166 169 160 0
168 181 167 0
173 179 166 0
180 181 169 0
179 186 194 0
169 179 180 0
173 186 179 0
174 186 173 0
187 203 186 0
176 187 175 0
188 203 187 0
195 194 213 0
179 169 166 0
195 180 194 0
195 181 180 0
187 176 188 0
190 189 176 0
194 203 212 0
240 241 256 0
230 240 246 0
224 241 240 0
230 223 240 0
204 191 192 0
205 206 225 0
189 188 176 0
205 189 206 0
205 188 189 0
203 188 205 0
212 203 223 0
194 186 203 0
189 190 206 0
186 174 187 0
180 179 194 0
174 175 187 0
190 191 206 0
211 229 210 0
223 203 205 0
204 206 191 0
211 210 192 0
225 206 204 0
241 225 228 0
224 205 225 0
210 225 204 0
243 241 228 0
272 258 259 0
250 264 257 0
277 285 272 0
271 256 258 0
212 230 213 0
194 212 213 0
223 230 212 0
224 223 205 0
224 240 223 0
225 241 224 0
209 229 211 0
243 258 241 0
244 243 228 0
259 258 243 0
209 208 227 0
246 240 256 0
226 242 227 0
197 214 207 0
232 233 250 0
260 271 273 0
226 208 207 0
244 229 227 0
229 209 227 0
242 244 227 0
210 204 192 0
228 210 229 0
228 225 210 0
234 217 231 0
247 234 231 0
248 247 231 0
263 262 247 0
249 250 234 0
256 241 258 0
260 256 271 0
260 246 256 0
214 197 216 0
285 273 271 0
247 248 263 0
287 277 289 0
273 285 286 0
271 258 272 0
242 232 245 0
274 261 265 0
276 263 274 0
264 262 275 0
249 247 262 0
248 261 263 0
272 264 277 0
257 272 259 0
242 245 259 0
264 272 257 0
262 264 249 0
275 277 264 0
262 276 275 0
261 274 263 0
279 292 288 0
265 279 274 0
265 278 279 0
247 249 234 0
276 289 275 0
278 292 279 0
292 290 305 0
285 298 286 0
369 368 385 0
367 369 385 0
384 367 385 0
384 366 367 0
384 365 366 0
365 342 366 0
377 365 384 0
377 358 365 0
341 365 358 0
376 358 377 0
365 341 342 0
357 358 376 0
356 357 376 0
336 358 357 0
335 341 358 0
336 335 358 0
357 356 334 0
336 318 335 0
334 336 357 0
333 334 356 0
319 306 317 0
333 319 334 0
315 316 304 0
334 319 336 0
318 336 317 0
303 314 313 0
317 336 319 0
356 332 333 0
306 319 315 0
315 319 333 0
316 315 333 0
304 301 315 0
300 313 299 0
304 291 301 0
306 315 301 0
316 305 304 0
314 303 316 0
332 314 333 0
332 313 314 0
305 290 291 0
303 302 316 0
292 278 290 0
316 302 305 0
288 274 279 0
302 288 292 0
305 302 292 0
303 300 302 0
300 299 287 0
289 300 287 0
303 313 300 0
288 302 289 0
316 333 314 0
291 304 305 0
298 287 299 0
276 262 263 0
288 276 274 0
288 289 276 0
272 285 271 0
289 277 275 0
287 285 277 0
302 300 289 0
298 285 287 0
492 472 471 2
504 492 493 2
504 505 494 2
390 377 384 2
413 401 400 2
412 413 400 2
457 446 464 2
403 388 389 2
428 444 429 2
412 428 413 2
427 442 428 2
393 379 378 2
391 403 389 2
377 391 389 2
429 413 428 2
445 431 444 2
430 446 438 2
404 417 416 2
429 444 431 2
460 462 444 2
463 464 446 2
462 463 445 2
480 464 463 2
430 422 415 2
417 430 416 2
438 422 430 2
404 391 390 2
390 401 404 2
390 400 401 2
359 378 360 2
338 359 360 2
337 353 359 2
131 147 148 2
148 149 131 2
149 150 131 2
112 130 129 2
66 86 84 2
86 111 84 2
84 85 53 2
86 112 111 2
96 86 66 2
113 112 86 2
111 85 84 2
52 53 20 2
131 132 147 2
130 131 150 2
113 133 132 2
112 113 131 2
130 112 131 2
129 111 112 2
96 121 113 2
40 20 15 2
113 86 96 2
52 20 40 2
84 52 66 2
84 53 52 2
40 15 17 2
41 17 16 2
67 40 41 2
119 97 93 2
96 66 67 2
66 52 40 2
41 16 34 2
67 41 62 2
40 17 41 2
33 62 34 2
62 93 67 2
34 62 41 2
33 35 62 2
113 132 131 2
121 133 113 2
97 121 96 2
140 133 121 2
140 152 133 2
97 119 122 2
121 97 122 2
67 93 97 2
9 35 33 2
37 35 10 2
64 37 36 2
64 63 37 2
37 11 36 2
39 13 14 2
39 36 13 2
14 12 38 2
88 92 61 2
61 91 60 2
56 61 60 2
56 88 61 2
63 93 62 2
37 63 35 2
94 93 63 2
11 37 10 2
122 140 121 2
67 97 96 2
153 134 143 2
92 117 118 2
165 154 164 2
165 155 154 2
65 95 64 2
39 65 64 2
60 91 65 2
116 92 88 2
95 94 64 2
92 118 91 2
118 120 95 2
35 9 10 2
94 63 64 2
63 62 35 2
38 39 14 2
60 38 32 2
65 39 38 2
36 39 64 2
32 12 8 2
65 38 60 2
38 12 32 2
136 154 138 2
118 136 138 2
118 117 136 2
32 8 31 2
60 32 31 2
24 31 7 2
3 23 1 2
55 56 24 2
141 123 124 2
124 123 102 2
123 101 98 2
102 123 98 2
141 127 123 2
123 100 101 2
123 99 100 2
123 103 99 2
107 127 104 2
78 107 104 2
103 127 107 2
99 103 68 2
123 127 103 2
68 103 77 2
103 107 77 2
76 107 75 2
76 77 107 2
75 107 78 2
104 69 70 2
78 104 70 2
105 80 73 2
127 105 104 2
127 126 106 2
144 127 141 2
126 128 109 2
144 126 127 2
144 128 126 2
104 71 69 2
104 105 71 2
71 105 74 2
74 105 72 2
106 105 127 2
82 80 109 2
73 72 105 2
106 80 105 2
109 106 126 2
109 80 106 2
44 73 80 2
43 44 80 2
45 43 80 2
144 141 156 2
108 83 110 2
108 79 83 2
115 108 128 2
115 114 108 2
80 82 50 2
45 80 50 2
110 83 109 2
128 110 109 2
128 108 110 2
81 83 51 2
49 81 46 2
82 109 81 2
143 128 144 2
134 115 128 2
79 42 51 2
82 49 48 2
50 82 48 2
109 83 81 2
82 81 49 2
46 81 47 2
51 42 19 2
51 83 79 2
47 51 19 2
47 81 51 2
21 54 26 2
108 114 87 2
59 88 55 2
28 30 59 2
114 115 135 2
42 22 18 2
19 42 18 2
79 87 54 2
42 54 22 2
42 79 54 2
57 25 26 2
89 57 87 2
58 27 57 2
54 87 57 2
26 54 57 2
21 22 54 2
156 167 157 2
193 181 195 2
163 153 157 2
165 164 178 2
139 155 140 2
154 139 138 2
154 155 139 2
167 181 177 2
116 90 89 2
92 91 61 2
135 117 116 2
120 138 119 2
95 120 94 2
118 138 120 2
91 118 95 2
117 135 137 2
116 117 92 2
135 153 137 2
93 94 119 2
95 65 91 2
56 55 88 2
108 87 79 2
116 88 90 2
134 153 135 2
137 153 154 2
136 137 154 2
136 117 137 2
114 135 116 2
115 134 135 2
89 58 57 2
116 89 114 2
90 58 89 2
88 59 90 2
31 24 56 2
29 4 28 2
27 5 2 2
59 30 58 2
28 6 30 2
57 27 25 2
114 89 87 2
90 59 58 2
27 30 5 2
25 27 2 2
58 30 27 2
30 6 5 2
55 29 59 2
4 6 28 2
29 23 3 2
59 29 28 2
55 23 29 2
29 3 4 2
24 23 55 2
24 1 23 2
24 7 1 2
60 31 56 2
8 7 31 2
133 152 151 2
132 133 151 2
157 153 143 2
66 40 67 2
163 167 177 2
178 164 177 2
143 144 157 2
163 164 153 2
167 163 157 2
177 164 163 2
134 128 143 2
36 11 13 2
144 156 157 2
162 170 161 2
140 155 152 2
201 200 220 2
171 172 183 2
178 177 193 2
138 122 119 2
193 195 213 2
184 193 200 2
184 178 193 2
155 162 152 2
122 139 140 2
165 162 155 2
154 153 164 2
122 138 139 2
119 94 120 2
185 184 201 2
165 172 171 2
178 184 172 2
161 152 162 2
161 151 152 2
193 213 200 2
171 182 170 2
165 178 172 2
199 198 183 2
202 221 222 2
185 172 184 2
199 185 202 2
183 172 185 2
184 200 201 2
177 181 193 2
213 230 220 2
171 183 182 2
162 171 170 2
162 165 171 2
220 237 221 2
213 220 200 2
230 237 220 2
198 182 183 2
237 230 246 2
253 255 238 2
246 253 237 2
260 273 269 2
201 202 185 2
219 198 199 2
255 239 238 2
251 236 252 2
235 218 236 2
219 236 218 2
202 219 199 2
222 236 219 2
202 222 219 2
183 185 199 2
201 221 202 2
221 238 222 2
269 253 260 2
283 269 273 2
283 270 269 2
239 222 238 2
252 239 254 2
236 222 239 2
253 246 260 2
238 237 253 2
254 239 255 2
221 237 238 2
221 201 220 2
198 219 218 2
269 270 255 2
236 251 235 2
286 283 273 2
266 251 252 2
268 282 267 2
254 268 267 2
254 270 268 2
298 297 286 2
239 252 236 2
270 254 255 2
270 282 268 2
254 267 252 2
253 269 255 2
283 297 284 2
281 280 267 2
267 266 252 2
267 280 266 2
330 331 355 2
374 354 355 2
329 310 330 2
321 308 320 2
312 331 330 2
310 312 330 2
310 311 312 2
307 295 309 2
297 298 311 2
286 297 283 2
298 299 311 2
294 280 281 2
311 310 296 2
313 311 299 2
331 312 311 2
293 294 281 2
284 270 283 2
311 296 297 2
295 293 282 2
296 295 284 2
297 296 284 2
310 309 296 2
309 329 320 2
296 309 295 2
310 329 309 2
281 282 293 2
331 311 313 2
307 320 308 2
355 356 375 2
338 321 337 2
374 388 387 2
332 356 355 2
356 376 375 2
373 378 359 2
353 373 359 2
329 353 337 2
329 330 353 2
282 281 267 2
284 282 270 2
284 295 282 2
307 293 295 2
320 307 309 2
337 320 329 2
337 321 320 2
308 294 307 2
307 294 293 2
313 332 331 2
388 402 387 2
353 354 373 2
332 355 331 2
354 374 373 2
330 354 353 2
330 355 354 2
375 374 355 2
375 388 374 2
376 389 375 2
378 379 360 2
387 378 373 2
374 387 373 2
402 393 387 2
393 392 379 2
387 393 378 2
407 415 422 2
406 407 419 2
406 393 407 2
337 359 338 2
389 388 375 2
377 389 376 2
377 390 391 2
347 368 343 2
347 322 323 2
368 347 371 2
343 322 347 2
347 323 325 2
347 325 349 2
325 326 349 2
324 348 328 2
371 349 348 2
348 324 344 2
371 348 370 2
349 328 348 2
348 344 370 2
344 345 370 2
370 345 346 2
372 352 350 2
372 370 352 2
398 386 383 2
386 371 370 2
383 386 372 2
398 400 386 2
368 371 385 2
349 327 328 2
347 349 371 2
326 327 349 2
346 352 370 2
339 362 351 2
362 372 351 2
340 362 339 2
383 372 362 2
363 362 340 2
398 383 399 2
400 398 412 2
400 385 386 2
372 350 351 2
383 362 363 2
383 363 364 2
383 364 361 2
383 361 380 2
396 380 381 2
399 412 398 2
380 396 383 2
396 382 397 2
383 396 399 2
381 382 396 2
397 382 395 2
409 397 395 2
411 396 397 2
370 372 386 2
409 395 394 2
411 397 409 2
409 394 408 2
423 409 424 2
439 423 424 2
427 412 411 2
411 399 396 2
423 411 409 2
423 427 411 2
424 410 426 2
427 423 439 2
408 410 424 2
424 426 439 2
426 425 441 2
425 440 441 2
477 478 459 2
498 477 476 2
499 478 477 2
409 408 424 2
440 458 459 2
509 510 499 2
385 371 386 2
499 477 498 2
509 499 498 2
500 479 478 2
479 461 478 2
512 502 501 2
460 461 479 2
462 445 444 2
480 462 479 2
480 463 462 2
444 442 460 2
442 427 439 2
460 442 443 2
444 428 442 2
478 461 459 2
458 477 459 2
499 500 478 2
510 500 499 2
514 510 509 2
511 512 501 2
514 511 510 2
514 515 511 2
501 480 500 2
511 500 510 2
400 384 385 2
427 428 412 2
390 384 400 2
512 511 515 2
512 515 513 2
506 502 513 2
501 500 511 2
502 512 513 2
497 502 506 2
497 481 502 2
497 506 508 2
491 475 497 2
490 491 503 2
490 471 491 2
493 471 490 2
493 492 471 2
441 439 426 2
459 441 440 2
459 439 441 2
476 477 458 2
443 442 439 2
461 443 459 2
461 460 443 2
459 443 439 2
457 472 454 2
457 471 472 2
481 475 464 2
481 497 475 2
501 481 480 2
497 503 491 2
501 502 481 2
508 503 497 2
475 491 471 2
414 404 401 2
413 414 401 2
402 388 403 2
412 399 411 2
432 418 433 2
433 448 432 2
433 449 448 2
434 433 418 2
434 453 452 2
433 447 449 2
433 451 447 2
433 452 451 2
470 465 484 2
469 470 489 2
453 465 470 2
452 453 470 2
434 435 453 2
452 433 434 2
469 452 470 2
469 451 452 2
420 418 405 2
420 434 418 2
419 421 435 2
406 419 420 2
407 393 402 2
415 407 402 2
405 406 420 2
405 392 406 2
470 484 489 2
450 465 453 2
450 467 465 2
465 483 484 2
467 487 483 2
474 455 456 2
488 468 482 2
488 485 468 2
420 419 435 2
494 472 492 2
504 494 492 2
495 473 494 2
482 468 474 2
438 436 422 2
473 454 472 2
456 436 454 2
474 456 473 2
495 474 473 2
468 455 474 2
455 437 456 2
453 435 450 2
421 436 437 2
435 421 437 2
455 435 437 2
434 420 435 2
416 415 402 2
414 429 417 2
417 431 430 2
486 487 467 2
466 486 467 2
455 450 435 2
436 456 437 2
468 466 455 2
466 450 455 2
486 466 485 2
467 450 466 2
485 466 468 2
467 483 465 2
496 482 474 2
392 393 406 2
495 496 474 2
495 507 496 2
472 494 473 2
505 507 495 2
407 421 419 2
407 422 421 2
403 416 402 2
429 414 413 2
431 417 429 2
446 431 445 2
446 430 431 2
417 404 414 2
403 404 416 2
403 391 404 2
436 421 422 2
464 475 457 2
438 446 457 2
480 481 464 2
454 473 456 2
457 475 471 2
436 438 454 2
463 446 445 2
454 438 457 2
430 415 416 2
460 479 462 2
479 500 480 2
494 505 495 2
196 215 2
215 217 2
217 231 2
231 248 2
248 261 2
261 265 2
265 278 2
278 290 2
290 291 2
291 301 2
301 306 2
306 317 2
317 318 2
318 335 2
335 341 2
341 342 2
342 366 2
366 367 2
367 369 2
369 368 2
124 125 2
125 142 2
142 146 2
146 145 2
145 158 2
158 160 2
160 166 2
166 173 2
173 174 2
174 175 2
175 176 2
176 190 2
190 191 2
191 192 2
192 211 2
211 209 2
209 208 2
208 207 2
207 197 2
197 196 2
503 490 2
490 493 2
493 504 2
504 505 2
505 507 2
507 496 2
496 482 2
482 488 2
488 485 2
485 486 2
486 487 2
487 483 2
483 484 2
484 489 2
489 469 2
469 451 2
451 447 2
447 449 2
449 448 2
448 432 2
361 380 1
380 381 1
381 382 1
382 395 1
395 394 1
394 408 1
408 410 1
410 426 1
426 425 1
425 440 1
440 458 1
458 476 1
476 498 1
498 509 1
509 514 1
514 515 1
515 513 1
513 506 1
506 508 1
508 503 1
368 343 2
343 322 2
322 323 2
323 325 2
325 326 2
326 327 2
327 328 2
328 324 2
324 344 2
344 345 2
345 346 2
346 352 2
352 350 2
350 351 2
351 339 2
339 340 2
340 363 2
363 364 2
364 361 2
124 141 2
141 156 2
156 167 2
167 181 2
181 195 2
195 213 2
213 230 2
230 246 2
246 260 2
260 273 2
273 286 2
286 298 2
298 299 2
299 313 2
313 332 2
332 356 2
356 376 2
376 377 2
377 384 2
384 385 2
368 385 2
45 43 2
43 44 2
44 73 2
73 72 2
72 74 2
74 71 2
71 69 2
69 70 2
70 78 2
78 75 2
75 76 2
76 77 2
77 68 2
68 99 2
99 100 2
100 101 2
101 98 2
98 102 2
102 124 2
12 8 1
8 7 1
7 1 1
1 3 1
3 4 1
4 6 1
6 5 1
5 2 1
2 25 1
25 26 1
26 21 1
21 22 1
22 18 1
18 19 1
19 47 1
47 46 1
46 49 1
49 48 1
48 50 1
50 45 1
147 148 2
148 149 2
149 150 2
150 130 2
130 129 2
129 111 2
111 85 2
85 53 2
53 20 2
20 15 2
15 17 2
17 16 2
16 34 2
34 33 2
33 9 2
9 10 2
10 11 2
11 13 2
13 14 2
14 12 2
432 418 2
418 405 2
405 392 2
392 379 2
379 360 2
360 338 2
338 321 2
321 308 2
308 294 2
294 280 2
280 266 2
266 251 2
251 235 2
235 218 2
218 198 2
198 182 2
182 170 2
170 161 2
161 151 2
151 132 2
132 147 2
